<svg xmlns="http://www.w3.org/2000/svg" viewBox="0 0 1920 1080" width="1920" height="1080" preserveAspectRatio="xMidYMid meet" style="width: 100%; height: 100%; transform: translate3d(0px, 0px, 0px); content-visibility: visible;"><defs><clipPath id="__lottie_element_2"><rect width="1920" height="1080" x="0" y="0"></rect></clipPath><clipPath id="__lottie_element_4"><path d="M0,0 L1920,0 L1920,1080 L0,1080z"></path></clipPath><clipPath id="__lottie_element_8"><path d="M0,0 L1920,0 L1920,1080 L0,1080z"></path></clipPath><clipPath id="__lottie_element_12"><path d="M0,0 L1920,0 L1920,1080 L0,1080z"></path></clipPath><clipPath id="__lottie_element_13"><path fill="#ffffff" clip-rule="nonzero" d=" M1822,56 C1822,56 98,56 98,56 C98,56 98,976 98,976 C98,976 1822,976 1822,976 C1822,976 1822,56 1822,56" fill-opacity="1"></path></clipPath><clipPath id="__lottie_element_18"><path d="M0,0 L1920,0 L1920,1080 L0,1080z"></path></clipPath><clipPath id="__lottie_element_26"><path d="M0,0 L1920,0 L1920,1080 L0,1080z"></path></clipPath><clipPath id="__lottie_element_30"><path d="M0,0 L1920,0 L1920,1080 L0,1080z"></path></clipPath><clipPath id="__lottie_element_35"><path d="M0,0 L1920,0 L1920,1080 L0,1080z"></path></clipPath><clipPath id="__lottie_element_39"><path d="M0,0 L1920,0 L1920,1080 L0,1080z"></path></clipPath><clipPath id="__lottie_element_44"><path d="M0,0 L1920,0 L1920,1080 L0,1080z"></path></clipPath><clipPath id="__lottie_element_48"><path d="M0,0 L1920,0 L1920,1080 L0,1080z"></path></clipPath><clipPath id="__lottie_element_56"><path d="M0,0 L1920,0 L1920,1080 L0,1080z"></path></clipPath><mask id="__lottie_element_68" mask-type="alpha"><g transform="matrix(1,0,0,1,960,540)" opacity="1" style="display: block;"><g opacity="1" transform="matrix(1,0,0,1,0,0)"><path fill="rgb(0,0,0)" fill-opacity="1" d=" M-304,9.5 C-304,9.5 -323,75 -321,102 C-319,129 -284,141.5 -269,144.5 C-254,147.5 -214.68600463867188,129.95700073242188 -201,103 C-184.5,70.5 -175.5,48 -176.5,21"></path><path stroke-linecap="butt" stroke-linejoin="miter" fill-opacity="0" stroke-miterlimit="4" stroke="rgb(0,0,0)" stroke-opacity="1" stroke-width="85" d=" M-304,9.5 C-304,9.5 -323,75 -321,102 C-319,129 -284,141.5 -269,144.5 C-254,147.5 -214.68600463867188,129.95700073242188 -201,103 C-184.5,70.5 -175.5,48 -176.5,21"></path></g></g></mask><mask id="__lottie_element_74" mask-type="alpha"><g transform="matrix(1,0,0,1,960,540)" opacity="1" style="display: block;"><g opacity="1" transform="matrix(1,0,0,1,0,0)"><path stroke-linecap="butt" stroke-linejoin="miter" fill-opacity="0" stroke-miterlimit="4" stroke="rgb(0,0,0)" stroke-opacity="1" stroke-width="85" d=" M-182,52.5 C-179,29.5 -164.5,-19 -185,-41.5 C-206.67999267578125,-65.29499816894531 -254.5,-66.5 -274,-40.5 C-293.78399658203125,-14.121000289916992 -310,13 -312.5,46"></path></g></g></mask><filter id="__lottie_element_84" filterUnits="objectBoundingBox" x="0%" y="0%" width="100%" height="100%"><feComponentTransfer in="SourceGraphic"><feFuncA type="table" tableValues="1.0 0.0"></feFuncA></feComponentTransfer></filter><mask id="__lottie_element_83" mask-type="alpha"><g filter="url(#__lottie_element_84)"><rect width="1920" height="1080" x="0" y="0" fill="#ffffff" opacity="0"></rect><g transform="matrix(1,0,0,1,960,540)" opacity="1" style="display: block;"><g opacity="1" transform="matrix(1,0,0,1,0,0)"><path fill="rgb(0,0,0)" fill-opacity="1" d=" M28.95800018310547,38.04199981689453 C28.95800018310547,38.04199981689453 20.16699981689453,39.145999908447266 11.666999816894531,49.145999908447266 C3.1670000553131104,59.145999908447266 11.666999816894531,49.395999908447266 11.666999816894531,49.395999908447266 C11.666999816894531,49.395999908447266 12.416999816894531,48.645999908447266 12.416999816894531,48.645999908447266 C12.416999816894531,48.645999908447266 12.395999908447266,217.22900390625 12.395999908447266,217.22900390625 C12.395999908447266,217.22900390625 46.2140007019043,230.66200256347656 69.66699981689453,213.47900390625 C92.5,196.75 93.35800170898438,180.64599609375 96.72899627685547,163.60400390625 C101.25,140.75 56.17300033569336,132.20399475097656 64.33300018310547,109.20800018310547 C69.83300018310547,93.70800018310547 37.354000091552734,72.72899627685547 41.354000091552734,59.729000091552734 C45.354000091552734,46.729000091552734 28.95800018310547,38.04199981689453 28.95800018310547,38.04199981689453z"></path><path stroke-linecap="butt" stroke-linejoin="miter" fill-opacity="0" stroke-miterlimit="4" stroke="rgb(0,0,0)" stroke-opacity="1" stroke-width="1" d=" M28.95800018310547,38.04199981689453 C28.95800018310547,38.04199981689453 20.16699981689453,39.145999908447266 11.666999816894531,49.145999908447266 C3.1670000553131104,59.145999908447266 11.666999816894531,49.395999908447266 11.666999816894531,49.395999908447266 C11.666999816894531,49.395999908447266 12.416999816894531,48.645999908447266 12.416999816894531,48.645999908447266 C12.416999816894531,48.645999908447266 12.395999908447266,217.22900390625 12.395999908447266,217.22900390625 C12.395999908447266,217.22900390625 46.2140007019043,230.66200256347656 69.66699981689453,213.47900390625 C92.5,196.75 93.35800170898438,180.64599609375 96.72899627685547,163.60400390625 C101.25,140.75 56.17300033569336,132.20399475097656 64.33300018310547,109.20800018310547 C69.83300018310547,93.70800018310547 37.354000091552734,72.72899627685547 41.354000091552734,59.729000091552734 C45.354000091552734,46.729000091552734 28.95800018310547,38.04199981689453 28.95800018310547,38.04199981689453z"></path></g></g></g></mask><filter id="__lottie_element_103" filterUnits="objectBoundingBox" x="0%" y="0%" width="100%" height="100%"><feComponentTransfer in="SourceGraphic"><feFuncA type="table" tableValues="1.0 0.0"></feFuncA></feComponentTransfer></filter><mask id="__lottie_element_102" mask-type="alpha"><g filter="url(#__lottie_element_103)"><rect width="1920" height="1080" x="0" y="0" fill="#ffffff" opacity="0"></rect><g transform="matrix(1,0,0,1,960,540)" opacity="1" style="display: block;"><g opacity="1" transform="matrix(1,0,0,1,0,0)"><path fill="rgb(0,0,0)" fill-opacity="1" d=" M179,-79 C140.656005859375,-60.165000915527344 171.75,-23 171.75,-23 C171.75,-23 212.25,27.75 212.25,27.75 C212.25,27.75 223.5,16.5 223.5,16.5 C223.5,16.5 223.75,16.75 223.75,16.75 C223.75,16.75 223.5,16.5 223.5,16.5 C223.5,16.5 191.25,-48.25 191.25,-48.25 C191.25,-48.25 233.75,-107.75 201.25,-104.5 C164.85899353027344,-100.86100006103516 221.75,-100 179,-79z"></path><path stroke-linecap="butt" stroke-linejoin="miter" fill-opacity="0" stroke-miterlimit="4" stroke="rgb(0,0,0)" stroke-opacity="1" stroke-width="1" d=" M179,-79 C140.656005859375,-60.165000915527344 171.75,-23 171.75,-23 C171.75,-23 212.25,27.75 212.25,27.75 C212.25,27.75 223.5,16.5 223.5,16.5 C223.5,16.5 223.75,16.75 223.75,16.75 C223.75,16.75 223.5,16.5 223.5,16.5 C223.5,16.5 191.25,-48.25 191.25,-48.25 C191.25,-48.25 233.75,-107.75 201.25,-104.5 C164.85899353027344,-100.86100006103516 221.75,-100 179,-79z"></path></g></g></g></mask><clipPath id="__lottie_element_148"><path d="M0,0 L1920,0 L1920,1080 L0,1080z"></path></clipPath><clipPath id="__lottie_element_152"><path d="M0,0 L1920,0 L1920,1080 L0,1080z"></path></clipPath><clipPath id="__lottie_element_162"><path d="M0,0 L1920,0 L1920,1080 L0,1080z"></path></clipPath><clipPath id="__lottie_element_163"><path fill="#ffffff" clip-rule="nonzero" d=" M1822,56 C1822,56 98,56 98,56 C98,56 98,976 98,976 C98,976 1822,976 1822,976 C1822,976 1822,56 1822,56" fill-opacity="1"></path></clipPath><clipPath id="__lottie_element_168"><path d="M0,0 L1920,0 L1920,1080 L0,1080z"></path></clipPath><clipPath id="__lottie_element_173"><path d="M0,0 L1920,0 L1920,1080 L0,1080z"></path></clipPath><clipPath id="__lottie_element_177"><path d="M0,0 L1920,0 L1920,1080 L0,1080z"></path></clipPath><clipPath id="__lottie_element_182"><path d="M0,0 L1920,0 L1920,1080 L0,1080z"></path></clipPath><clipPath id="__lottie_element_186"><path d="M0,0 L1920,0 L1920,1080 L0,1080z"></path></clipPath><clipPath id="__lottie_element_191"><path d="M0,0 L1920,0 L1920,1080 L0,1080z"></path></clipPath><clipPath id="__lottie_element_195"><path d="M0,0 L1920,0 L1920,1080 L0,1080z"></path></clipPath><clipPath id="__lottie_element_200"><path d="M0,0 L1920,0 L1920,1080 L0,1080z"></path></clipPath><clipPath id="__lottie_element_210"><path d="M0,0 L1920,0 L1920,1080 L0,1080z"></path></clipPath><clipPath id="__lottie_element_214"><path d="M0,0 L1920,0 L1920,1080 L0,1080z"></path></clipPath><clipPath id="__lottie_element_215"><path fill="#ffffff" clip-rule="nonzero" d=" M1822,56 C1822,56 98,56 98,56 C98,56 98,976 98,976 C98,976 1822,976 1822,976 C1822,976 1822,56 1822,56" fill-opacity="1"></path></clipPath><clipPath id="__lottie_element_220"><path d="M0,0 L1920,0 L1920,1080 L0,1080z"></path></clipPath><clipPath id="__lottie_element_225"><path d="M0,0 L1920,0 L1920,1080 L0,1080z"></path></clipPath><clipPath id="__lottie_element_229"><path d="M0,0 L1920,0 L1920,1080 L0,1080z"></path></clipPath><clipPath id="__lottie_element_234"><path d="M0,0 L1920,0 L1920,1080 L0,1080z"></path></clipPath><clipPath id="__lottie_element_238"><path d="M0,0 L1920,0 L1920,1080 L0,1080z"></path></clipPath><clipPath id="__lottie_element_243"><path d="M0,0 L1920,0 L1920,1080 L0,1080z"></path></clipPath><clipPath id="__lottie_element_247"><path d="M0,0 L1920,0 L1920,1080 L0,1080z"></path></clipPath><clipPath id="__lottie_element_252"><path d="M0,0 L1920,0 L1920,1080 L0,1080z"></path></clipPath><filter id="__lottie_element_295" filterUnits="objectBoundingBox" x="0%" y="0%" width="100%" height="100%"><feComponentTransfer in="SourceGraphic"><feFuncA type="table" tableValues="1.0 0.0"></feFuncA></feComponentTransfer></filter><mask id="__lottie_element_294" mask-type="alpha"><g filter="url(#__lottie_element_295)"><rect width="1920" height="1080" x="0" y="0" fill="#ffffff" opacity="0"></rect><g style="display: block;" transform="matrix(1,0,0,1,960,540)" opacity="1"><g opacity="1" transform="matrix(1,0,0,1,0,0)"><path fill="rgb(0,0,0)" fill-opacity="1" d=" M28.95800018310547,38.04199981689453 C28.95800018310547,38.04199981689453 20.16699981689453,39.145999908447266 11.666999816894531,49.145999908447266 C3.1670000553131104,59.145999908447266 11.666999816894531,49.395999908447266 11.666999816894531,49.395999908447266 C11.666999816894531,49.395999908447266 12.416999816894531,48.645999908447266 12.416999816894531,48.645999908447266 C12.416999816894531,48.645999908447266 12.395999908447266,217.22900390625 12.395999908447266,217.22900390625 C12.395999908447266,217.22900390625 46.2140007019043,230.66200256347656 69.66699981689453,213.47900390625 C92.5,196.75 93.35800170898438,180.64599609375 96.72899627685547,163.60400390625 C101.25,140.75 56.17300033569336,132.20399475097656 64.33300018310547,109.20800018310547 C69.83300018310547,93.70800018310547 37.354000091552734,72.72899627685547 41.354000091552734,59.729000091552734 C45.354000091552734,46.729000091552734 28.95800018310547,38.04199981689453 28.95800018310547,38.04199981689453z"></path><path stroke-linecap="butt" stroke-linejoin="miter" fill-opacity="0" stroke-miterlimit="4" stroke="rgb(0,0,0)" stroke-opacity="1" stroke-width="1" d=" M28.95800018310547,38.04199981689453 C28.95800018310547,38.04199981689453 20.16699981689453,39.145999908447266 11.666999816894531,49.145999908447266 C3.1670000553131104,59.145999908447266 11.666999816894531,49.395999908447266 11.666999816894531,49.395999908447266 C11.666999816894531,49.395999908447266 12.416999816894531,48.645999908447266 12.416999816894531,48.645999908447266 C12.416999816894531,48.645999908447266 12.395999908447266,217.22900390625 12.395999908447266,217.22900390625 C12.395999908447266,217.22900390625 46.2140007019043,230.66200256347656 69.66699981689453,213.47900390625 C92.5,196.75 93.35800170898438,180.64599609375 96.72899627685547,163.60400390625 C101.25,140.75 56.17300033569336,132.20399475097656 64.33300018310547,109.20800018310547 C69.83300018310547,93.70800018310547 37.354000091552734,72.72899627685547 41.354000091552734,59.729000091552734 C45.354000091552734,46.729000091552734 28.95800018310547,38.04199981689453 28.95800018310547,38.04199981689453z"></path></g></g></g></mask><mask id="__lottie_element_304" mask-type="alpha"><g style="display: block;" transform="matrix(1,0,0,1,960,540)" opacity="1"><g opacity="1" transform="matrix(1,0,0,1,0,0)"><path stroke-linecap="butt" stroke-linejoin="miter" fill-opacity="0" stroke-miterlimit="4" stroke="rgb(0,0,0)" stroke-opacity="1" stroke-width="85" d=" M-182,52.5 C-179,29.5 -164.5,-19 -185,-41.5 C-206.67999267578125,-65.29499816894531 -254.5,-66.5 -274,-40.5 C-293.78399658203125,-14.121000289916992 -310,13 -312.5,46"></path></g></g></mask><filter id="__lottie_element_314" filterUnits="objectBoundingBox" x="0%" y="0%" width="100%" height="100%"><feComponentTransfer in="SourceGraphic"><feFuncA type="table" tableValues="1.0 0.0"></feFuncA></feComponentTransfer></filter><mask id="__lottie_element_313" mask-type="alpha"><g filter="url(#__lottie_element_314)"><rect width="1920" height="1080" x="0" y="0" fill="#ffffff" opacity="0"></rect><g style="display: block;" transform="matrix(1,0,0,1,960,540)" opacity="1"><g opacity="1" transform="matrix(1,0,0,1,0,0)"><path fill="rgb(0,0,0)" fill-opacity="1" d=" M179,-79 C140.656005859375,-60.165000915527344 171.75,-23 171.75,-23 C171.75,-23 212.25,27.75 212.25,27.75 C212.25,27.75 223.5,16.5 223.5,16.5 C223.5,16.5 223.75,16.75 223.75,16.75 C223.75,16.75 223.5,16.5 223.5,16.5 C223.5,16.5 191.25,-48.25 191.25,-48.25 C191.25,-48.25 233.75,-107.75 201.25,-104.5 C164.85899353027344,-100.86100006103516 221.75,-100 179,-79z"></path><path stroke-linecap="butt" stroke-linejoin="miter" fill-opacity="0" stroke-miterlimit="4" stroke="rgb(0,0,0)" stroke-opacity="1" stroke-width="1" d=" M179,-79 C140.656005859375,-60.165000915527344 171.75,-23 171.75,-23 C171.75,-23 212.25,27.75 212.25,27.75 C212.25,27.75 223.5,16.5 223.5,16.5 C223.5,16.5 223.75,16.75 223.75,16.75 C223.75,16.75 223.5,16.5 223.5,16.5 C223.5,16.5 191.25,-48.25 191.25,-48.25 C191.25,-48.25 233.75,-107.75 201.25,-104.5 C164.85899353027344,-100.86100006103516 221.75,-100 179,-79z"></path></g></g></g></mask><mask id="__lottie_element_323" mask-type="alpha"><g style="display: block;" transform="matrix(1,0,0,1,960,540)" opacity="1"><g opacity="1" transform="matrix(1,0,0,1,0,0)"><path fill="rgb(0,0,0)" fill-opacity="1" d=" M-304,9.5 C-304,9.5 -323,75 -321,102 C-319,129 -284,141.5 -269,144.5 C-254,147.5 -214.68600463867188,129.95700073242188 -201,103 C-184.5,70.5 -175.5,48 -176.5,21"></path><path stroke-linecap="butt" stroke-linejoin="miter" fill-opacity="0" stroke-miterlimit="4" stroke="rgb(0,0,0)" stroke-opacity="1" stroke-width="85" d=" M-304,9.5 C-304,9.5 -323,75 -321,102 C-319,129 -284,141.5 -269,144.5 C-254,147.5 -214.68600463867188,129.95700073242188 -201,103 C-184.5,70.5 -175.5,48 -176.5,21"></path></g></g></mask></defs><g clip-path="url(#__lottie_element_2)"><g clip-path="url(#__lottie_element_4)" transform="matrix(0.6499999761581421,0,0,0.6499999761581421,348,196)" opacity="1" style="display: block;"><g clip-path="url(#__lottie_element_210)" style="display: block;" transform="matrix(1,0,0,1,0,0)" opacity="1"><g clip-path="url(#__lottie_element_214)" style="display: block;" transform="matrix(1,0,0,1,0,0)" opacity="1"><g clip-path="url(#__lottie_element_215)"><g clip-path="url(#__lottie_element_220)" style="display: block;" transform="matrix(1.019336462020874,0,0,1.0207343101501465,-17.837013244628906,-11.196527481079102)" opacity="1"><g style="display: none;" transform="matrix(1,0,0,1,1533.0570068359375,158.5)" opacity="1"><g opacity="1" transform="matrix(1,0,0,1,0,0)"><path fill="rgb(0,0,0)" fill-opacity="1" d=" M-650.75,301.62298583984375 C-652.625,302.74798583984375 -654.75,311.37298583984375 -654.75,311.37298583984375 C-654.75,311.37298583984375 -656,317.74798583984375 -656,317.74798583984375 C-656,317.74798583984375 -659.25,329.74798583984375 -657.375,332.12298583984375 C-655.9959716796875,333.8699951171875 -643.5,333.24798583984375 -643.5,333.24798583984375 C-643.5,333.24798583984375 -599.5,333.5 -599.5,333.5 C-599.5,333.5 -587.2479858398438,334.4129943847656 -585.125,332.625 C-582.75,330.625 -579.5,315 -579.5,315 C-579.5,315 -579.75,314.625 -579.75,314.625 C-579.75,314.625 -577,304.5 -578.25,302.125 C-579.5269775390625,299.6990051269531 -593.5050048828125,300.4830017089844 -593.5050048828125,300.4830017089844 C-593.5050048828125,300.4830017089844 -639.3679809570312,300.5580139160156 -639.3679809570312,300.5580139160156 C-639.3679809570312,300.5580139160156 -648.7559814453125,300.427001953125 -650.75,301.62298583984375z"></path><path stroke-linecap="butt" stroke-linejoin="miter" fill-opacity="0" stroke-miterlimit="4" stroke="rgb(0,0,0)" stroke-opacity="1" stroke-width="1" d=" M-650.75,301.62298583984375 C-652.625,302.74798583984375 -654.75,311.37298583984375 -654.75,311.37298583984375 C-654.75,311.37298583984375 -656,317.74798583984375 -656,317.74798583984375 C-656,317.74798583984375 -659.25,329.74798583984375 -657.375,332.12298583984375 C-655.9959716796875,333.8699951171875 -643.5,333.24798583984375 -643.5,333.24798583984375 C-643.5,333.24798583984375 -599.5,333.5 -599.5,333.5 C-599.5,333.5 -587.2479858398438,334.4129943847656 -585.125,332.625 C-582.75,330.625 -579.5,315 -579.5,315 C-579.5,315 -579.75,314.625 -579.75,314.625 C-579.75,314.625 -577,304.5 -578.25,302.125 C-579.5269775390625,299.6990051269531 -593.5050048828125,300.4830017089844 -593.5050048828125,300.4830017089844 C-593.5050048828125,300.4830017089844 -639.3679809570312,300.5580139160156 -639.3679809570312,300.5580139160156 C-639.3679809570312,300.5580139160156 -648.7559814453125,300.427001953125 -650.75,301.62298583984375z"></path></g></g><g style="display: block;" transform="matrix(1,0,0,1,960.364990234375,540)" opacity="1"><g opacity="1" transform="matrix(1,0,0,1,0,0)"><path fill="rgb(0,0,0)" fill-opacity="1" d=" M-537.25,-157.625 C-539.125,-156.5 -541.25,-147.875 -541.25,-147.875 C-541.25,-147.875 -614,142 -614,142 C-614,142 -617.25,154 -615.375,156.375 C-613.9959716796875,158.1219940185547 -601.5,157.5 -601.5,157.5 C-601.5,157.5 -556,157.5 -556,157.5 C-556,157.5 -543.7479858398438,158.41299438476562 -541.625,156.625 C-539.25,154.625 -536,139 -536,139 C-536,139 -464.75,-144.875 -464.75,-144.875 C-464.75,-144.875 -462,-155 -463.25,-157.375 C-464.5270080566406,-159.80099487304688 -478.5050048828125,-159.01699829101562 -478.5050048828125,-159.01699829101562 C-478.5050048828125,-159.01699829101562 -525.8679809570312,-158.68899536132812 -525.8679809570312,-158.68899536132812 C-525.8679809570312,-158.68899536132812 -535.2559814453125,-158.8209991455078 -537.25,-157.625z"></path><path stroke-linecap="butt" stroke-linejoin="miter" fill-opacity="0" stroke-miterlimit="4" stroke="rgb(0,0,0)" stroke-opacity="1" stroke-width="1" d=" M-537.25,-157.625 C-539.125,-156.5 -541.25,-147.875 -541.25,-147.875 C-541.25,-147.875 -614,142 -614,142 C-614,142 -617.25,154 -615.375,156.375 C-613.9959716796875,158.1219940185547 -601.5,157.5 -601.5,157.5 C-601.5,157.5 -556,157.5 -556,157.5 C-556,157.5 -543.7479858398438,158.41299438476562 -541.625,156.625 C-539.25,154.625 -536,139 -536,139 C-536,139 -464.75,-144.875 -464.75,-144.875 C-464.75,-144.875 -462,-155 -463.25,-157.375 C-464.5270080566406,-159.80099487304688 -478.5050048828125,-159.01699829101562 -478.5050048828125,-159.01699829101562 C-478.5050048828125,-159.01699829101562 -525.8679809570312,-158.68899536132812 -525.8679809570312,-158.68899536132812 C-525.8679809570312,-158.68899536132812 -535.2559814453125,-158.8209991455078 -537.25,-157.625z"></path></g></g></g><g style="display: block;" transform="matrix(1.019336462020874,0,0,1.0207343101501465,960.7260131835938,540)" opacity="1"><g opacity="1" transform="matrix(1,0,0,1,0,0)"><path fill="rgb(0,0,0)" fill-opacity="1" d=" M-447,-71.375 C-462.9939880371094,-65.48300170898438 -474.875,-52.125 -481.25,-44 C-486.67401123046875,-37.08700180053711 -497.625,-21.25 -502.25,-11.625 C-506.875,-2 -511.25,9.875 -514.875,23.625 C-518.5,37.375 -519.5189819335938,61.5 -517.875,61.5 C-517.25,61.875 -516.5,55.25 -506.25,21 C-503.7980041503906,12.807999610900879 -494,-7.5 -487.75,-15.75 C-481.5,-24 -469.25799560546875,-36.05799865722656 -460.25,-37.25 C-451.75,-38.375 -444.375,-34.875 -447.75,-17.75 C-450.9840087890625,-1.3380000591278076 -458.5,29.75 -461,39.5 C-463.5,49.25 -480.875,119.375 -482.75,127.875 C-484.625,136.375 -487.75,145.5 -488.25,148.5 C-488.75,151.5 -489.5,154.5 -488,155.875 C-486.5,157.25 -485.375,158.25 -481.25,158.5 C-477.125,158.75 -423.375,158.5 -420.75,158.375 C-418.125,158.25 -414.625,158.25 -413.375,155.875 C-412.125,153.5 -411.5360107421875,149.6439971923828 -411,146.875 C-410.25,143 -377.84600830078125,18.631999969482422 -377,15.25 C-375.75,10.25 -369.5,-15.125 -369.5,-24 C-369.5,-32.875 -371.125,-60.25 -388.75,-69 C-405.7799987792969,-77.45500183105469 -430.375,-77.5 -447,-71.375z"></path><path stroke-linecap="butt" stroke-linejoin="miter" fill-opacity="0" stroke-miterlimit="4" stroke="rgb(0,0,0)" stroke-opacity="1" stroke-width="1" d=" M-447,-71.375 C-462.9939880371094,-65.48300170898438 -474.875,-52.125 -481.25,-44 C-486.67401123046875,-37.08700180053711 -497.625,-21.25 -502.25,-11.625 C-506.875,-2 -511.25,9.875 -514.875,23.625 C-518.5,37.375 -519.5189819335938,61.5 -517.875,61.5 C-517.25,61.875 -516.5,55.25 -506.25,21 C-503.7980041503906,12.807999610900879 -494,-7.5 -487.75,-15.75 C-481.5,-24 -469.25799560546875,-36.05799865722656 -460.25,-37.25 C-451.75,-38.375 -444.375,-34.875 -447.75,-17.75 C-450.9840087890625,-1.3380000591278076 -458.5,29.75 -461,39.5 C-463.5,49.25 -480.875,119.375 -482.75,127.875 C-484.625,136.375 -487.75,145.5 -488.25,148.5 C-488.75,151.5 -489.5,154.5 -488,155.875 C-486.5,157.25 -485.375,158.25 -481.25,158.5 C-477.125,158.75 -423.375,158.5 -420.75,158.375 C-418.125,158.25 -414.625,158.25 -413.375,155.875 C-412.125,153.5 -411.5360107421875,149.6439971923828 -411,146.875 C-410.25,143 -377.84600830078125,18.631999969482422 -377,15.25 C-375.75,10.25 -369.5,-15.125 -369.5,-24 C-369.5,-32.875 -371.125,-60.25 -388.75,-69 C-405.7799987792969,-77.45500183105469 -430.375,-77.5 -447,-71.375z"></path></g></g><g clip-path="url(#__lottie_element_225)" style="display: block;" transform="matrix(1.019336462020874,0,0,1.0207343101501465,-16.23590087890625,-11.196527481079102)" opacity="1"><g style="display: block;" transform="matrix(1,0,0,1,1199.0570068359375,540)" opacity="1"><g opacity="1" transform="matrix(1,0,0,1,0,0)"><path fill="rgb(0,0,0)" fill-opacity="1" d=" M-577.75,9.875 C-579.625,11 -581.75,19.625 -581.75,19.625 C-581.75,19.625 -592,58 -592,58 C-592,58 -595.25,70 -593.375,72.375 C-591.9959716796875,74.12200164794922 -579.5,73.5 -579.5,73.5 C-579.5,73.5 -534,73.5 -534,73.5 C-534,73.5 -521.7479858398438,74.41300201416016 -519.625,72.625 C-517.25,70.625 -514,55 -514,55 C-514,55 -505.25,22.625 -505.25,22.625 C-505.25,22.625 -502.5,12.5 -503.75,10.125 C-505.0270080566406,7.698999881744385 -519.0050048828125,8.482999801635742 -519.0050048828125,8.482999801635742 C-519.0050048828125,8.482999801635742 -566.3679809570312,8.810999870300293 -566.3679809570312,8.810999870300293 C-566.3679809570312,8.810999870300293 -575.7559814453125,8.678999900817871 -577.75,9.875z"></path><path stroke-linecap="butt" stroke-linejoin="miter" fill-opacity="0" stroke-miterlimit="4" stroke="rgb(0,0,0)" stroke-opacity="1" stroke-width="1" d=" M-577.75,9.875 C-579.625,11 -581.75,19.625 -581.75,19.625 C-581.75,19.625 -592,58 -592,58 C-592,58 -595.25,70 -593.375,72.375 C-591.9959716796875,74.12200164794922 -579.5,73.5 -579.5,73.5 C-579.5,73.5 -534,73.5 -534,73.5 C-534,73.5 -521.7479858398438,74.41300201416016 -519.625,72.625 C-517.25,70.625 -514,55 -514,55 C-514,55 -505.25,22.625 -505.25,22.625 C-505.25,22.625 -502.5,12.5 -503.75,10.125 C-505.0270080566406,7.698999881744385 -519.0050048828125,8.482999801635742 -519.0050048828125,8.482999801635742 C-519.0050048828125,8.482999801635742 -566.3679809570312,8.810999870300293 -566.3679809570312,8.810999870300293 C-566.3679809570312,8.810999870300293 -575.7559814453125,8.678999900817871 -577.75,9.875z"></path></g></g><g mask="url(#__lottie_element_323)" style="display: block;"><g transform="matrix(1,0,0,1,960,540)" opacity="1"><g opacity="1" transform="matrix(1,0,0,1,0,0)"><path fill="rgb(0,0,0)" fill-opacity="1" d=" M-269.25,27.75 C-269.25,27.75 -345.5,27.75 -345.5,27.75 C-345.5,27.75 -347.5,37 -354.75,65.5 C-362,94 -357.75,125.25 -335.75,145.5 C-313.75,165.75 -271.25,166.25 -239,157.75 C-206.75,149.25 -192.75,136.25 -173.25,113 C-153.75,89.75 -141,47 -141,47 C-141,47 -140.25,40.75 -140.25,40.75 C-140.25,40.75 -216.75,40.75 -216.75,40.75 C-216.75,40.75 -223.75,65 -236.25,92.25 C-243.8509979248047,108.81900024414062 -256,122 -265.75,123.75 C-275.5,125.5 -279.75,121.25 -281.5,102.5 C-283.25,83.75 -276.25,61.25 -276.25,61.25 C-276.25,61.25 -269.25,27.75 -269.25,27.75z"></path><path stroke-linecap="butt" stroke-linejoin="miter" fill-opacity="0" stroke-miterlimit="4" stroke="rgb(0,0,0)" stroke-opacity="1" stroke-width="1" d=" M-269.25,27.75 C-269.25,27.75 -345.5,27.75 -345.5,27.75 C-345.5,27.75 -347.5,37 -354.75,65.5 C-362,94 -357.75,125.25 -335.75,145.5 C-313.75,165.75 -271.25,166.25 -239,157.75 C-206.75,149.25 -192.75,136.25 -173.25,113 C-153.75,89.75 -141,47 -141,47 C-141,47 -140.25,40.75 -140.25,40.75 C-140.25,40.75 -216.75,40.75 -216.75,40.75 C-216.75,40.75 -223.75,65 -236.25,92.25 C-243.8509979248047,108.81900024414062 -256,122 -265.75,123.75 C-275.5,125.5 -279.75,121.25 -281.5,102.5 C-283.25,83.75 -276.25,61.25 -276.25,61.25 C-276.25,61.25 -269.25,27.75 -269.25,27.75z"></path></g></g></g><g style="display: none;" transform="matrix(1,0,0,1,960,540)" opacity="1"><g opacity="1" transform="matrix(1,0,0,1,0,0)"><path fill="rgb(0,0,0)" fill-opacity="1" d=" M-183.70399475097656,55.516998291015625 C-183.70399475097656,55.516998291015625 -146.55999755859375,62.93899917602539 -144.4320068359375,58.137001037597656 C-142.8820037841797,54.638999938964844 -144.43699645996094,52.0880012512207 -144.63999938964844,51.96099853515625 C-146.5970001220703,50.52899932861328 -170.093994140625,44.22200012207031 -179.67300415039062,42.07099914550781 C-190.40499877929688,39.6609992980957 -213.03900146484375,38.63600158691406 -214.69900512695312,39.21500015258789 C-216.8560028076172,39.96799850463867 -217.06300354003906,41.3129997253418 -217.38800048828125,44.0989990234375 C-217.6479949951172,46.327999114990234 -183.70399475097656,55.516998291015625 -183.70399475097656,55.516998291015625z"></path><path stroke-linecap="butt" stroke-linejoin="miter" fill-opacity="0" stroke-miterlimit="4" stroke="rgb(0,0,0)" stroke-opacity="1" stroke-width="1" d=" M-183.70399475097656,55.516998291015625 C-183.70399475097656,55.516998291015625 -146.55999755859375,62.93899917602539 -144.4320068359375,58.137001037597656 C-142.8820037841797,54.638999938964844 -144.43699645996094,52.0880012512207 -144.63999938964844,51.96099853515625 C-146.5970001220703,50.52899932861328 -170.093994140625,44.22200012207031 -179.67300415039062,42.07099914550781 C-190.40499877929688,39.6609992980957 -213.03900146484375,38.63600158691406 -214.69900512695312,39.21500015258789 C-216.8560028076172,39.96799850463867 -217.06300354003906,41.3129997253418 -217.38800048828125,44.0989990234375 C-217.6479949951172,46.327999114990234 -183.70399475097656,55.516998291015625 -183.70399475097656,55.516998291015625z"></path></g></g></g><g clip-path="url(#__lottie_element_229)" style="display: block;" transform="matrix(1.019336462020874,0,0,1.0207343101501465,-16.23590087890625,-11.196527481079102)" opacity="1"><g mask="url(#__lottie_element_304)" style="display: block;"><g transform="matrix(1,0,0,1,960,540)" opacity="1"><g opacity="1" transform="matrix(1,0,0,1,0,0)"><path fill="rgb(0,0,0)" fill-opacity="1" d=" M-184.75,-73 C-202.1909942626953,-76.30500030517578 -221.25,-75.75 -244,-71.75 C-265.90301513671875,-67.89900207519531 -283.75,-56.75 -293.25,-49.75 C-302.75,-42.75 -322.5,-24.25 -332,-5.75 C-341.5,12.75 -347.25,35.5 -347.25,35.5 C-347.25,35.5 -270,35.5 -270,35.5 C-270,35.5 -262.90301513671875,14.312999725341797 -256.25,0 C-248,-17.75 -236.75,-33 -229.25,-35.25 C-221.75,-37.5 -211.5,-37 -209.5,-22.75 C-207.927001953125,-11.541000366210938 -209.5,1.5 -211.75,13.5 C-214,25.5 -217.5,44 -217.5,44 C-217.5,44 -140.75,44.25 -140.75,44.25 C-140.75,44.25 -138.5,34.25 -138.5,34.25 C-138.5,34.25 -132.5,12.75 -132.75,-1.25 C-133,-15.25 -132.5,-29.75 -141.5,-44.25 C-150.5,-58.75 -161,-68.5 -184.75,-73z"></path><path stroke-linecap="butt" stroke-linejoin="miter" fill-opacity="0" stroke-miterlimit="4" stroke="rgb(0,0,0)" stroke-opacity="1" stroke-width="1" d=" M-184.75,-73 C-202.1909942626953,-76.30500030517578 -221.25,-75.75 -244,-71.75 C-265.90301513671875,-67.89900207519531 -283.75,-56.75 -293.25,-49.75 C-302.75,-42.75 -322.5,-24.25 -332,-5.75 C-341.5,12.75 -347.25,35.5 -347.25,35.5 C-347.25,35.5 -270,35.5 -270,35.5 C-270,35.5 -262.90301513671875,14.312999725341797 -256.25,0 C-248,-17.75 -236.75,-33 -229.25,-35.25 C-221.75,-37.5 -211.5,-37 -209.5,-22.75 C-207.927001953125,-11.541000366210938 -209.5,1.5 -211.75,13.5 C-214,25.5 -217.5,44 -217.5,44 C-217.5,44 -140.75,44.25 -140.75,44.25 C-140.75,44.25 -138.5,34.25 -138.5,34.25 C-138.5,34.25 -132.5,12.75 -132.75,-1.25 C-133,-15.25 -132.5,-29.75 -141.5,-44.25 C-150.5,-58.75 -161,-68.5 -184.75,-73z"></path></g></g></g><g style="display: block;" transform="matrix(1,0,0,1,1331.2470703125,538.10302734375)" opacity="1"><g opacity="1" transform="matrix(1,0,0,1,0,0)"><path fill="rgb(0,0,0)" fill-opacity="1" d=" M-581.25,20.375 C-583.125,21.5 -585.25,30.125 -585.25,30.125 C-585.25,30.125 -597.5,70 -597.5,70 C-597.5,70 -600.75,82 -598.875,84.375 C-597.4959716796875,86.12200164794922 -585,85.5 -585,85.5 C-585,85.5 -539.5,85.5 -539.5,85.5 C-539.5,85.5 -527.2479858398438,86.41300201416016 -525.125,84.625 C-522.75,82.625 -519.5,67 -519.5,67 C-519.5,67 -508.75,33.125 -508.75,33.125 C-508.75,33.125 -506,23 -507.25,20.625 C-508.5270080566406,18.198999404907227 -522.5050048828125,18.982999801635742 -522.5050048828125,18.982999801635742 C-522.5050048828125,18.982999801635742 -569.8679809570312,19.31100082397461 -569.8679809570312,19.31100082397461 C-569.8679809570312,19.31100082397461 -579.2559814453125,19.179000854492188 -581.25,20.375z"></path><path stroke-linecap="butt" stroke-linejoin="miter" fill-opacity="0" stroke-miterlimit="4" stroke="rgb(0,0,0)" stroke-opacity="1" stroke-width="1" d=" M-581.25,20.375 C-583.125,21.5 -585.25,30.125 -585.25,30.125 C-585.25,30.125 -597.5,70 -597.5,70 C-597.5,70 -600.75,82 -598.875,84.375 C-597.4959716796875,86.12200164794922 -585,85.5 -585,85.5 C-585,85.5 -539.5,85.5 -539.5,85.5 C-539.5,85.5 -527.2479858398438,86.41300201416016 -525.125,84.625 C-522.75,82.625 -519.5,67 -519.5,67 C-519.5,67 -508.75,33.125 -508.75,33.125 C-508.75,33.125 -506,23 -507.25,20.625 C-508.5270080566406,18.198999404907227 -522.5050048828125,18.982999801635742 -522.5050048828125,18.982999801635742 C-522.5050048828125,18.982999801635742 -569.8679809570312,19.31100082397461 -569.8679809570312,19.31100082397461 C-569.8679809570312,19.31100082397461 -579.2559814453125,19.179000854492188 -581.25,20.375z"></path></g></g><g style="display: none;" transform="matrix(1,0,0,1,960,540)" opacity="1"><g opacity="1" transform="matrix(1,0,0,1,0,0)"><path fill="rgb(0,0,0)" fill-opacity="1" d=" M-340.7121276855469,19.061790466308594 C-338.882080078125,20.91147232055664 -321.6577453613281,24.996572494506836 -308.69732666015625,28.02640151977539 C-300.1129150390625,30.013235092163086 -275.22210693359375,35.01551818847656 -271.7762451171875,35.0311279296875 C-268.69488525390625,35.04482650756836 -268.3119201660156,31.376020431518555 -268.234130859375,28.651416778564453 C-268.12548828125,24.834197998046875 -306.17822265625,17.177629470825195 -306.17822265625,17.177629470825195 C-306.17822265625,17.177629470825195 -336.83038330078125,9.378839492797852 -338.9315185546875,11.982232093811035 C-340.22479248046875,13.58471393585205 -342.2768249511719,17.48025894165039 -340.7121276855469,19.061790466308594z"></path><path stroke-linecap="butt" stroke-linejoin="miter" fill-opacity="0" stroke-miterlimit="4" stroke="rgb(0,0,0)" stroke-opacity="1" stroke-width="1" d=" M-340.7121276855469,19.061790466308594 C-338.882080078125,20.91147232055664 -321.6577453613281,24.996572494506836 -308.69732666015625,28.02640151977539 C-300.1129150390625,30.013235092163086 -275.22210693359375,35.01551818847656 -271.7762451171875,35.0311279296875 C-268.69488525390625,35.04482650756836 -268.3119201660156,31.376020431518555 -268.234130859375,28.651416778564453 C-268.12548828125,24.834197998046875 -306.17822265625,17.177629470825195 -306.17822265625,17.177629470825195 C-306.17822265625,17.177629470825195 -336.83038330078125,9.378839492797852 -338.9315185546875,11.982232093811035 C-340.22479248046875,13.58471393585205 -342.2768249511719,17.48025894165039 -340.7121276855469,19.061790466308594z"></path></g></g></g><g clip-path="url(#__lottie_element_234)" style="display: block;" transform="matrix(0.9998013377189636,0,0,1.0207343101501465,-0.21395178139209747,-11.196527481079102)" opacity="1"><g mask="url(#__lottie_element_294)" style="display: block;"><g transform="matrix(1,0,0,1,960,540)" opacity="1"><g opacity="1" transform="matrix(1,0,0,1,0,0)"><path fill="rgb(0,0,0)" fill-opacity="1" d=" M17.5,43 C17.5,43 15.25,48.5 9.75,66.25 C4.665999889373779,82.65799713134766 -6.25,103 -18.5,114.25 C-30.75,125.5 -40.75,128 -47.25,121 C-51.82699966430664,116.07099914550781 -47.5,99.25 -46,93.25 C-44.5,87.25 -40.75,73.75 -40.75,73.75 C-40.75,73.75 -118,73.75 -118,73.75 C-118,73.75 -121,85.5 -123,92.5 C-125,99.5 -130.25,126.5 -120.75,142.5 C-111.25,158.5 -99.25,161.75 -82.75,162.75 C-66.25,163.75 -45.555999755859375,161.6580047607422 -26.25,144 C-5.75,125.25 -0.30399999022483826,109.25800323486328 10.5,85.25 C15,75.25 17.5,43 17.5,43z"></path><path stroke-linecap="butt" stroke-linejoin="miter" fill-opacity="0" stroke-miterlimit="4" stroke="rgb(0,0,0)" stroke-opacity="1" stroke-width="1" d=" M17.5,43 C17.5,43 15.25,48.5 9.75,66.25 C4.665999889373779,82.65799713134766 -6.25,103 -18.5,114.25 C-30.75,125.5 -40.75,128 -47.25,121 C-51.82699966430664,116.07099914550781 -47.5,99.25 -46,93.25 C-44.5,87.25 -40.75,73.75 -40.75,73.75 C-40.75,73.75 -118,73.75 -118,73.75 C-118,73.75 -121,85.5 -123,92.5 C-125,99.5 -130.25,126.5 -120.75,142.5 C-111.25,158.5 -99.25,161.75 -82.75,162.75 C-66.25,163.75 -45.555999755859375,161.6580047607422 -26.25,144 C-5.75,125.25 -0.30399999022483826,109.25800323486328 10.5,85.25 C15,75.25 17.5,43 17.5,43z"></path></g></g></g><g style="display: block;" transform="matrix(1,0,0,1,1438.5570068359375,540)" opacity="1"><g opacity="1" transform="matrix(1,0,0,1,0,0)"><path fill="rgb(0,0,0)" fill-opacity="1" d=" M-559.25,-68.625 C-561.125,-67.5 -563.25,-58.875 -563.25,-58.875 C-563.25,-58.875 -599,81.5 -599,81.5 C-599,81.5 -602.25,93.5 -600.375,95.875 C-598.9959716796875,97.62200164794922 -586.5,97 -586.5,97 C-586.5,97 -541,97 -541,97 C-541,97 -528.7479858398438,97.91300201416016 -526.625,96.125 C-524.25,94.125 -521,78.5 -521,78.5 C-521,78.5 -486.75,-55.875 -486.75,-55.875 C-486.75,-55.875 -484,-66 -485.25,-68.375 C-486.5270080566406,-70.8010025024414 -500.5050048828125,-70.01699829101562 -500.5050048828125,-70.01699829101562 C-500.5050048828125,-70.01699829101562 -547.8679809570312,-69.68900299072266 -547.8679809570312,-69.68900299072266 C-547.8679809570312,-69.68900299072266 -557.2559814453125,-69.82099914550781 -559.25,-68.625z"></path><path stroke-linecap="butt" stroke-linejoin="miter" fill-opacity="0" stroke-miterlimit="4" stroke="rgb(0,0,0)" stroke-opacity="1" stroke-width="1" d=" M-559.25,-68.625 C-561.125,-67.5 -563.25,-58.875 -563.25,-58.875 C-563.25,-58.875 -599,81.5 -599,81.5 C-599,81.5 -602.25,93.5 -600.375,95.875 C-598.9959716796875,97.62200164794922 -586.5,97 -586.5,97 C-586.5,97 -541,97 -541,97 C-541,97 -528.7479858398438,97.91300201416016 -526.625,96.125 C-524.25,94.125 -521,78.5 -521,78.5 C-521,78.5 -486.75,-55.875 -486.75,-55.875 C-486.75,-55.875 -484,-66 -485.25,-68.375 C-486.5270080566406,-70.8010025024414 -500.5050048828125,-70.01699829101562 -500.5050048828125,-70.01699829101562 C-500.5050048828125,-70.01699829101562 -547.8679809570312,-69.68900299072266 -547.8679809570312,-69.68900299072266 C-547.8679809570312,-69.68900299072266 -557.2559814453125,-69.82099914550781 -559.25,-68.625z"></path></g></g><g style="display: none;" transform="matrix(1,0,0,1,960,540)" opacity="1"><g opacity="1" transform="matrix(1,0,0,1,0,0)"><path fill="rgb(0,0,0)" fill-opacity="1" d=" M6.428999900817871,76.58399963378906 C6.428999900817871,76.58399963378906 5.232999801635742,99.86799621582031 5.232999801635742,99.86799621582031 C5.232999801635742,99.86799621582031 6.567999839782715,97.93199920654297 7.122000217437744,97.08799743652344 C7.877999782562256,95.93599700927734 8.64799976348877,93.44999694824219 8.795999526977539,92.12300109863281 C8.902000427246094,91.1719970703125 9.045000076293945,89.0989990234375 8.98799991607666,85.18399810791016 C8.902999877929688,79.38600158691406 9.836999893188477,75.5989990234375 9.26099967956543,73.86499786376953 C8.928000450134277,72.86399841308594 8.402999877929688,72.46499633789062 7.789999961853027,72.47000122070312 C6.909999847412109,72.47699737548828 6.428999900817871,76.58399963378906 6.428999900817871,76.58399963378906z"></path><path stroke-linecap="butt" stroke-linejoin="miter" fill-opacity="0" stroke-miterlimit="4" stroke="rgb(0,0,0)" stroke-opacity="1" stroke-width="1" d=" M6.428999900817871,76.58399963378906 C6.428999900817871,76.58399963378906 5.232999801635742,99.86799621582031 5.232999801635742,99.86799621582031 C5.232999801635742,99.86799621582031 6.567999839782715,97.93199920654297 7.122000217437744,97.08799743652344 C7.877999782562256,95.93599700927734 8.64799976348877,93.44999694824219 8.795999526977539,92.12300109863281 C8.902000427246094,91.1719970703125 9.045000076293945,89.0989990234375 8.98799991607666,85.18399810791016 C8.902999877929688,79.38600158691406 9.836999893188477,75.5989990234375 9.26099967956543,73.86499786376953 C8.928000450134277,72.86399841308594 8.402999877929688,72.46499633789062 7.789999961853027,72.47000122070312 C6.909999847412109,72.47699737548828 6.428999900817871,76.58399963378906 6.428999900817871,76.58399963378906z"></path></g></g></g><g clip-path="url(#__lottie_element_238)" style="display: block;" transform="matrix(0.9998013377189636,0,0,1.0207343101501465,-0.21395178139209747,-11.196527481079102)" opacity="1"><g style="display: block;" transform="matrix(1,0,0,1,1565.7469482421875,538.10302734375)" opacity="1"><g opacity="1" transform="matrix(1,0,0,1,0,0)"><path fill="rgb(0,0,0)" fill-opacity="1" d=" M-559.25,-68.625 C-561.125,-67.5 -563.25,-58.875 -563.25,-58.875 C-563.25,-58.875 -614,142 -614,142 C-614,142 -617.25,154 -615.375,156.375 C-613.9959716796875,158.1219940185547 -601.5,157.5 -601.5,157.5 C-601.5,157.5 -556,157.5 -556,157.5 C-556,157.5 -543.7479858398438,158.41299438476562 -541.625,156.625 C-539.25,154.625 -536,139 -536,139 C-536,139 -486.75,-55.875 -486.75,-55.875 C-486.75,-55.875 -484,-66 -485.25,-68.375 C-486.5270080566406,-70.8010025024414 -500.5050048828125,-70.01699829101562 -500.5050048828125,-70.01699829101562 C-500.5050048828125,-70.01699829101562 -547.8679809570312,-69.68900299072266 -547.8679809570312,-69.68900299072266 C-547.8679809570312,-69.68900299072266 -557.2559814453125,-69.82099914550781 -559.25,-68.625z"></path><path stroke-linecap="butt" stroke-linejoin="miter" fill-opacity="0" stroke-miterlimit="4" stroke="rgb(0,0,0)" stroke-opacity="1" stroke-width="1" d=" M-559.25,-68.625 C-561.125,-67.5 -563.25,-58.875 -563.25,-58.875 C-563.25,-58.875 -614,142 -614,142 C-614,142 -617.25,154 -615.375,156.375 C-613.9959716796875,158.1219940185547 -601.5,157.5 -601.5,157.5 C-601.5,157.5 -556,157.5 -556,157.5 C-556,157.5 -543.7479858398438,158.41299438476562 -541.625,156.625 C-539.25,154.625 -536,139 -536,139 C-536,139 -486.75,-55.875 -486.75,-55.875 C-486.75,-55.875 -484,-66 -485.25,-68.375 C-486.5270080566406,-70.8010025024414 -500.5050048828125,-70.01699829101562 -500.5050048828125,-70.01699829101562 C-500.5050048828125,-70.01699829101562 -547.8679809570312,-69.68900299072266 -547.8679809570312,-69.68900299072266 C-547.8679809570312,-69.68900299072266 -557.2559814453125,-69.82099914550781 -559.25,-68.625z"></path></g></g></g><g clip-path="url(#__lottie_element_243)" style="display: block;" transform="matrix(1.019336462020874,0,0,1.0207343101501465,-20.890106201171875,-11.196527481079102)" opacity="1"><g style="display: block;" transform="matrix(1,0,0,1,1684.0570068359375,540)" opacity="1"><g opacity="1" transform="matrix(1,0,0,1,0,0)"><path fill="rgb(0,0,0)" fill-opacity="1" d=" M-559.25,-68.625 C-561.125,-67.5 -563.25,-58.875 -563.25,-58.875 C-563.25,-58.875 -614,142 -614,142 C-614,142 -617.25,154 -615.375,156.375 C-613.9959716796875,158.1219940185547 -601.5,157.5 -601.5,157.5 C-601.5,157.5 -556,157.5 -556,157.5 C-556,157.5 -543.7479858398438,158.41299438476562 -541.625,156.625 C-539.25,154.625 -536,139 -536,139 C-536,139 -486.75,-55.875 -486.75,-55.875 C-486.75,-55.875 -484,-66 -485.25,-68.375 C-486.5270080566406,-70.8010025024414 -500.5050048828125,-70.01699829101562 -500.5050048828125,-70.01699829101562 C-500.5050048828125,-70.01699829101562 -547.8679809570312,-69.68900299072266 -547.8679809570312,-69.68900299072266 C-547.8679809570312,-69.68900299072266 -557.2559814453125,-69.82099914550781 -559.25,-68.625z"></path><path stroke-linecap="butt" stroke-linejoin="miter" fill-opacity="0" stroke-miterlimit="4" stroke="rgb(0,0,0)" stroke-opacity="1" stroke-width="1" d=" M-559.25,-68.625 C-561.125,-67.5 -563.25,-58.875 -563.25,-58.875 C-563.25,-58.875 -614,142 -614,142 C-614,142 -617.25,154 -615.375,156.375 C-613.9959716796875,158.1219940185547 -601.5,157.5 -601.5,157.5 C-601.5,157.5 -556,157.5 -556,157.5 C-556,157.5 -543.7479858398438,158.41299438476562 -541.625,156.625 C-539.25,154.625 -536,139 -536,139 C-536,139 -486.75,-55.875 -486.75,-55.875 C-486.75,-55.875 -484,-66 -485.25,-68.375 C-486.5270080566406,-70.8010025024414 -500.5050048828125,-70.01699829101562 -500.5050048828125,-70.01699829101562 C-500.5050048828125,-70.01699829101562 -547.8679809570312,-69.68900299072266 -547.8679809570312,-69.68900299072266 C-547.8679809570312,-69.68900299072266 -557.2559814453125,-69.82099914550781 -559.25,-68.625z"></path></g></g></g><g clip-path="url(#__lottie_element_247)" style="display: block;" transform="matrix(1.019336462020874,0,0,1.0207343101501465,-20.890106201171875,-11.196527481079102)" opacity="1"><g style="display: block;" transform="matrix(1,0,0,1,1808.7469482421875,541.10302734375)" opacity="1"><g opacity="1" transform="matrix(1,0,0,1,0,0)"><path fill="rgb(0,0,0)" fill-opacity="1" d=" M-575,-5.125 C-576.875,-4 -579,4.625 -579,4.625 C-579,4.625 -614,142 -614,142 C-614,142 -617.25,154 -615.375,156.375 C-613.9959716796875,158.1219940185547 -601.5,157.5 -601.5,157.5 C-601.5,157.5 -556,157.5 -556,157.5 C-556,157.5 -543.7479858398438,158.41299438476562 -541.625,156.625 C-539.25,154.625 -536,139 -536,139 C-536,139 -502.5,7.625 -502.5,7.625 C-502.5,7.625 -499.75,-2.5 -501,-4.875 C-502.2770080566406,-7.301000118255615 -516.2550048828125,-6.517000198364258 -516.2550048828125,-6.517000198364258 C-516.2550048828125,-6.517000198364258 -563.6179809570312,-6.189000129699707 -563.6179809570312,-6.189000129699707 C-563.6179809570312,-6.189000129699707 -573.0059814453125,-6.321000099182129 -575,-5.125z"></path><path stroke-linecap="butt" stroke-linejoin="miter" fill-opacity="0" stroke-miterlimit="4" stroke="rgb(0,0,0)" stroke-opacity="1" stroke-width="1" d=" M-575,-5.125 C-576.875,-4 -579,4.625 -579,4.625 C-579,4.625 -614,142 -614,142 C-614,142 -617.25,154 -615.375,156.375 C-613.9959716796875,158.1219940185547 -601.5,157.5 -601.5,157.5 C-601.5,157.5 -556,157.5 -556,157.5 C-556,157.5 -543.7479858398438,158.41299438476562 -541.625,156.625 C-539.25,154.625 -536,139 -536,139 C-536,139 -502.5,7.625 -502.5,7.625 C-502.5,7.625 -499.75,-2.5 -501,-4.875 C-502.2770080566406,-7.301000118255615 -516.2550048828125,-6.517000198364258 -516.2550048828125,-6.517000198364258 C-516.2550048828125,-6.517000198364258 -563.6179809570312,-6.189000129699707 -563.6179809570312,-6.189000129699707 C-563.6179809570312,-6.189000129699707 -573.0059814453125,-6.321000099182129 -575,-5.125z"></path></g></g><g mask="url(#__lottie_element_313)" style="display: block;"><g transform="matrix(1,0,0,1,960,540)" opacity="1"><g opacity="1" transform="matrix(1,0,0,1,0,0)"><path fill="rgb(0,0,0)" fill-opacity="1" d=" M324.125,-72.75 C295.62799072265625,-79.26399993896484 276.75,-73.625 263.5,-65 C250.45399475097656,-56.507999420166016 238.25,-42 231.25,-29 C224.25,-16 220,11.75 220,11.75 C220,11.75 230.00599670410156,-10.17300033569336 241,-22.5 C253.375,-36.375 266.75,-40 272.75,-34.25 C278.75,-28.5 273.5,-10 271.75,-2 C270,6 267.5,14 267.5,14 C267.5,14 344.25,14 344.25,14 C344.25,14 348.25,-1.25 348.25,-1.25 C348.25,-1.25 352.87799072265625,-16.41200065612793 352.5,-28.5 C352.125,-40.5 350.375,-66.75 324.125,-72.75z"></path><path stroke-linecap="butt" stroke-linejoin="miter" fill-opacity="0" stroke-miterlimit="4" stroke="rgb(0,0,0)" stroke-opacity="1" stroke-width="1" d=" M324.125,-72.75 C295.62799072265625,-79.26399993896484 276.75,-73.625 263.5,-65 C250.45399475097656,-56.507999420166016 238.25,-42 231.25,-29 C224.25,-16 220,11.75 220,11.75 C220,11.75 230.00599670410156,-10.17300033569336 241,-22.5 C253.375,-36.375 266.75,-40 272.75,-34.25 C278.75,-28.5 273.5,-10 271.75,-2 C270,6 267.5,14 267.5,14 C267.5,14 344.25,14 344.25,14 C344.25,14 348.25,-1.25 348.25,-1.25 C348.25,-1.25 352.87799072265625,-16.41200065612793 352.5,-28.5 C352.125,-40.5 350.375,-66.75 324.125,-72.75z"></path></g></g></g><g style="display: none;" transform="matrix(1,0,0,1,960,540)" opacity="1"><g opacity="1" transform="matrix(1,0,0,1,0,0)"><path fill="rgb(0,0,0)" fill-opacity="1" d=" M224.78799438476562,-14.395999908447266 C224.06199645996094,-12.375 222.31300354003906,-7.336999893188477 223.19700622558594,-4.978000164031982 C224.31199645996094,-2 226.25999450683594,-1.472000002861023 227.4720001220703,-1.906999945640564 C229.125,-2.5 230.7899932861328,-7.504000186920166 231.2830047607422,-7.9120001792907715 C232.28199768066406,-8.73900032043457 230.77699279785156,-14.980999946594238 230.77699279785156,-14.980999946594238 C230.77699279785156,-14.980999946594238 228.18800354003906,-21.75 227.66900634765625,-20.600000381469727 C227.1699981689453,-19.493999481201172 225.39999389648438,-16.10099983215332 224.78799438476562,-14.395999908447266z"></path><path stroke-linecap="butt" stroke-linejoin="miter" fill-opacity="0" stroke-miterlimit="4" stroke="rgb(0,0,0)" stroke-opacity="1" stroke-width="1" d=" M224.78799438476562,-14.395999908447266 C224.06199645996094,-12.375 222.31300354003906,-7.336999893188477 223.19700622558594,-4.978000164031982 C224.31199645996094,-2 226.25999450683594,-1.472000002861023 227.4720001220703,-1.906999945640564 C229.125,-2.5 230.7899932861328,-7.504000186920166 231.2830047607422,-7.9120001792907715 C232.28199768066406,-8.73900032043457 230.77699279785156,-14.980999946594238 230.77699279785156,-14.980999946594238 C230.77699279785156,-14.980999946594238 228.18800354003906,-21.75 227.66900634765625,-20.600000381469727 C227.1699981689453,-19.493999481201172 225.39999389648438,-16.10099983215332 224.78799438476562,-14.395999908447266z"></path></g></g></g><g style="display: block;" transform="matrix(1.019336462020874,0,0,1.0207343101501465,959.2739868164062,540)" opacity="1"><g opacity="1" transform="matrix(1,0,0,1,0,0)"><path fill="rgb(0,0,0)" fill-opacity="1" d=" M492,-73 C477.5480041503906,-80.36699676513672 458,-80 435.5,-71.25 C415.1449890136719,-63.33399963378906 397.25,-39.75 389.5,-21.75 C381.75,-3.75 370.75,26.25 365.25,53.25 C360.36700439453125,77.2229995727539 355.25,111.75 364.75,133.75 C374.25,155.75 384,159.5 402.5,160.25 C421,161 440.75,153.75 451.25,144 C461.75,134.25 475,120.25 482,101.5 C489,82.75 492,69.25 487.75,77.25 C483.5,85.25 479.75,95.25 473,105.25 C466.25,115.25 456.25,125.75 445.75,121.5 C437.9639892578125,118.3479995727539 435.8550109863281,104.56099700927734 436.5,89.5 C437.25,72 439.5,51.5 447.25,27 C455,2.5 464.75,-20.5 475.5,-31.75 C486.25,-43 497,-43.5 500.5,-29.75 C504,-16 500.5,4.75 500,13.25 C499.5,21.75 500.75,20 503.25,9 C505.75,-2 507.5,-16 508.75,-32.5 C509.8139953613281,-46.540000915527344 504.75,-66.5 492,-73z"></path><path stroke-linecap="butt" stroke-linejoin="miter" fill-opacity="0" stroke-miterlimit="4" stroke="rgb(0,0,0)" stroke-opacity="1" stroke-width="1" d=" M492,-73 C477.5480041503906,-80.36699676513672 458,-80 435.5,-71.25 C415.1449890136719,-63.33399963378906 397.25,-39.75 389.5,-21.75 C381.75,-3.75 370.75,26.25 365.25,53.25 C360.36700439453125,77.2229995727539 355.25,111.75 364.75,133.75 C374.25,155.75 384,159.5 402.5,160.25 C421,161 440.75,153.75 451.25,144 C461.75,134.25 475,120.25 482,101.5 C489,82.75 492,69.25 487.75,77.25 C483.5,85.25 479.75,95.25 473,105.25 C466.25,115.25 456.25,125.75 445.75,121.5 C437.9639892578125,118.3479995727539 435.8550109863281,104.56099700927734 436.5,89.5 C437.25,72 439.5,51.5 447.25,27 C455,2.5 464.75,-20.5 475.5,-31.75 C486.25,-43 497,-43.5 500.5,-29.75 C504,-16 500.5,4.75 500,13.25 C499.5,21.75 500.75,20 503.25,9 C505.75,-2 507.5,-16 508.75,-32.5 C509.8139953613281,-46.540000915527344 504.75,-66.5 492,-73z"></path></g></g><g clip-path="url(#__lottie_element_252)" style="display: block;" transform="matrix(-1.019336462020874,0,0,-1.0207343101501465,1938.8563232421875,1087.1136474609375)" opacity="1"><g style="display: none;" transform="matrix(1,0,0,1,1533.0570068359375,158.5)" opacity="1"><g opacity="1" transform="matrix(1,0,0,1,0,0)"><path fill="rgb(0,0,0)" fill-opacity="1" d=" M-650.75,301.62298583984375 C-652.625,302.74798583984375 -654.75,311.37298583984375 -654.75,311.37298583984375 C-654.75,311.37298583984375 -656,317.74798583984375 -656,317.74798583984375 C-656,317.74798583984375 -659.25,329.74798583984375 -657.375,332.12298583984375 C-655.9959716796875,333.8699951171875 -643.5,333.24798583984375 -643.5,333.24798583984375 C-643.5,333.24798583984375 -599.5,333.5 -599.5,333.5 C-599.5,333.5 -587.2479858398438,334.4129943847656 -585.125,332.625 C-582.75,330.625 -579.5,315 -579.5,315 C-579.5,315 -579.75,314.625 -579.75,314.625 C-579.75,314.625 -577,304.5 -578.25,302.125 C-579.5269775390625,299.6990051269531 -593.5050048828125,300.4830017089844 -593.5050048828125,300.4830017089844 C-593.5050048828125,300.4830017089844 -639.3679809570312,300.5580139160156 -639.3679809570312,300.5580139160156 C-639.3679809570312,300.5580139160156 -648.7559814453125,300.427001953125 -650.75,301.62298583984375z"></path><path stroke-linecap="butt" stroke-linejoin="miter" fill-opacity="0" stroke-miterlimit="4" stroke="rgb(0,0,0)" stroke-opacity="1" stroke-width="1" d=" M-650.75,301.62298583984375 C-652.625,302.74798583984375 -654.75,311.37298583984375 -654.75,311.37298583984375 C-654.75,311.37298583984375 -656,317.74798583984375 -656,317.74798583984375 C-656,317.74798583984375 -659.25,329.74798583984375 -657.375,332.12298583984375 C-655.9959716796875,333.8699951171875 -643.5,333.24798583984375 -643.5,333.24798583984375 C-643.5,333.24798583984375 -599.5,333.5 -599.5,333.5 C-599.5,333.5 -587.2479858398438,334.4129943847656 -585.125,332.625 C-582.75,330.625 -579.5,315 -579.5,315 C-579.5,315 -579.75,314.625 -579.75,314.625 C-579.75,314.625 -577,304.5 -578.25,302.125 C-579.5269775390625,299.6990051269531 -593.5050048828125,300.4830017089844 -593.5050048828125,300.4830017089844 C-593.5050048828125,300.4830017089844 -639.3679809570312,300.5580139160156 -639.3679809570312,300.5580139160156 C-639.3679809570312,300.5580139160156 -648.7559814453125,300.427001953125 -650.75,301.62298583984375z"></path></g></g><g style="display: block;" transform="matrix(1,0,0,1,960.364990234375,540)" opacity="1"><g opacity="1" transform="matrix(1,0,0,1,0,0)"><path fill="rgb(0,0,0)" fill-opacity="1" d=" M-537.25,-157.625 C-539.125,-156.5 -541.25,-147.875 -541.25,-147.875 C-541.25,-147.875 -614,142 -614,142 C-614,142 -617.25,154 -615.375,156.375 C-613.9959716796875,158.1219940185547 -601.5,157.5 -601.5,157.5 C-601.5,157.5 -556,157.5 -556,157.5 C-556,157.5 -543.7479858398438,158.41299438476562 -541.625,156.625 C-539.25,154.625 -536,139 -536,139 C-536,139 -464.75,-144.875 -464.75,-144.875 C-464.75,-144.875 -462,-155 -463.25,-157.375 C-464.5270080566406,-159.80099487304688 -478.5050048828125,-159.01699829101562 -478.5050048828125,-159.01699829101562 C-478.5050048828125,-159.01699829101562 -525.8679809570312,-158.68899536132812 -525.8679809570312,-158.68899536132812 C-525.8679809570312,-158.68899536132812 -535.2559814453125,-158.8209991455078 -537.25,-157.625z"></path><path stroke-linecap="butt" stroke-linejoin="miter" fill-opacity="0" stroke-miterlimit="4" stroke="rgb(0,0,0)" stroke-opacity="1" stroke-width="1" d=" M-537.25,-157.625 C-539.125,-156.5 -541.25,-147.875 -541.25,-147.875 C-541.25,-147.875 -614,142 -614,142 C-614,142 -617.25,154 -615.375,156.375 C-613.9959716796875,158.1219940185547 -601.5,157.5 -601.5,157.5 C-601.5,157.5 -556,157.5 -556,157.5 C-556,157.5 -543.7479858398438,158.41299438476562 -541.625,156.625 C-539.25,154.625 -536,139 -536,139 C-536,139 -464.75,-144.875 -464.75,-144.875 C-464.75,-144.875 -462,-155 -463.25,-157.375 C-464.5270080566406,-159.80099487304688 -478.5050048828125,-159.01699829101562 -478.5050048828125,-159.01699829101562 C-478.5050048828125,-159.01699829101562 -525.8679809570312,-158.68899536132812 -525.8679809570312,-158.68899536132812 C-525.8679809570312,-158.68899536132812 -535.2559814453125,-158.8209991455078 -537.25,-157.625z"></path></g></g></g></g></g></g><g clip-path="url(#__lottie_element_8)" transform="matrix(1,0,0,1,0,0)" opacity="1" style="display: none;"><g clip-path="url(#__lottie_element_12)" transform="matrix(1,0,0,1,0,0)" opacity="1" style="display: block;"><g clip-path="url(#__lottie_element_13)"><g clip-path="url(#__lottie_element_18)" transform="matrix(1.0199999809265137,0,0,1.0199999809265137,-19.199981689453125,-10.799989700317383)" opacity="1" style="display: block;"><g transform="matrix(1,0,0,1,960.364990234375,540)" opacity="1" style="display: block;"><g opacity="1" transform="matrix(1,0,0,1,0,0)"><path fill="rgb(0,0,0)" fill-opacity="1" d=" M-537.25,-157.625 C-539.125,-156.5 -541.25,-147.875 -541.25,-147.875 C-541.25,-147.875 -614,142 -614,142 C-614,142 -617.25,154 -615.375,156.375 C-613.9959716796875,158.1219940185547 -601.5,157.5 -601.5,157.5 C-601.5,157.5 -556,157.5 -556,157.5 C-556,157.5 -543.7479858398438,158.41299438476562 -541.625,156.625 C-539.25,154.625 -536,139 -536,139 C-536,139 -464.75,-144.875 -464.75,-144.875 C-464.75,-144.875 -462,-155 -463.25,-157.375 C-464.5270080566406,-159.80099487304688 -478.5050048828125,-159.01699829101562 -478.5050048828125,-159.01699829101562 C-478.5050048828125,-159.01699829101562 -525.8679809570312,-158.68899536132812 -525.8679809570312,-158.68899536132812 C-525.8679809570312,-158.68899536132812 -535.2559814453125,-158.8209991455078 -537.25,-157.625z"></path><path stroke-linecap="butt" stroke-linejoin="miter" fill-opacity="0" stroke-miterlimit="4" stroke="rgb(0,0,0)" stroke-opacity="1" stroke-width="1" d=" M-537.25,-157.625 C-539.125,-156.5 -541.25,-147.875 -541.25,-147.875 C-541.25,-147.875 -614,142 -614,142 C-614,142 -617.25,154 -615.375,156.375 C-613.9959716796875,158.1219940185547 -601.5,157.5 -601.5,157.5 C-601.5,157.5 -556,157.5 -556,157.5 C-556,157.5 -543.7479858398438,158.41299438476562 -541.625,156.625 C-539.25,154.625 -536,139 -536,139 C-536,139 -464.75,-144.875 -464.75,-144.875 C-464.75,-144.875 -462,-155 -463.25,-157.375 C-464.5270080566406,-159.80099487304688 -478.5050048828125,-159.01699829101562 -478.5050048828125,-159.01699829101562 C-478.5050048828125,-159.01699829101562 -525.8679809570312,-158.68899536132812 -525.8679809570312,-158.68899536132812 C-525.8679809570312,-158.68899536132812 -535.2559814453125,-158.8209991455078 -537.25,-157.625z"></path></g></g></g><g transform="matrix(1.0199999809265137,0,0,1.0199999809265137,960,540)" opacity="1" style="display: block;"><g opacity="1" transform="matrix(1,0,0,1,0,0)"><path fill="rgb(0,0,0)" fill-opacity="1" d=" M-447,-71.375 C-462.9939880371094,-65.48300170898438 -474.875,-52.125 -481.25,-44 C-486.67401123046875,-37.08700180053711 -497.625,-21.25 -502.25,-11.625 C-506.875,-2 -511.25,9.875 -514.875,23.625 C-518.5,37.375 -519.5189819335938,61.5 -517.875,61.5 C-517.25,61.875 -516.5,55.25 -506.25,21 C-503.7980041503906,12.807999610900879 -494,-7.5 -487.75,-15.75 C-481.5,-24 -469.25799560546875,-36.05799865722656 -460.25,-37.25 C-451.75,-38.375 -444.375,-34.875 -447.75,-17.75 C-450.9840087890625,-1.3380000591278076 -458.5,29.75 -461,39.5 C-463.5,49.25 -480.875,119.375 -482.75,127.875 C-484.625,136.375 -487.75,145.5 -488.25,148.5 C-488.75,151.5 -489.5,154.5 -488,155.875 C-486.5,157.25 -485.375,158.25 -481.25,158.5 C-477.125,158.75 -423.375,158.5 -420.75,158.375 C-418.125,158.25 -414.625,158.25 -413.375,155.875 C-412.125,153.5 -411.5360107421875,149.6439971923828 -411,146.875 C-410.25,143 -377.84600830078125,18.631999969482422 -377,15.25 C-375.75,10.25 -369.5,-15.125 -369.5,-24 C-369.5,-32.875 -371.125,-60.25 -388.75,-69 C-405.7799987792969,-77.45500183105469 -430.375,-77.5 -447,-71.375z"></path><path stroke-linecap="butt" stroke-linejoin="miter" fill-opacity="0" stroke-miterlimit="4" stroke="rgb(0,0,0)" stroke-opacity="1" stroke-width="1" d=" M-447,-71.375 C-462.9939880371094,-65.48300170898438 -474.875,-52.125 -481.25,-44 C-486.67401123046875,-37.08700180053711 -497.625,-21.25 -502.25,-11.625 C-506.875,-2 -511.25,9.875 -514.875,23.625 C-518.5,37.375 -519.5189819335938,61.5 -517.875,61.5 C-517.25,61.875 -516.5,55.25 -506.25,21 C-503.7980041503906,12.807999610900879 -494,-7.5 -487.75,-15.75 C-481.5,-24 -469.25799560546875,-36.05799865722656 -460.25,-37.25 C-451.75,-38.375 -444.375,-34.875 -447.75,-17.75 C-450.9840087890625,-1.3380000591278076 -458.5,29.75 -461,39.5 C-463.5,49.25 -480.875,119.375 -482.75,127.875 C-484.625,136.375 -487.75,145.5 -488.25,148.5 C-488.75,151.5 -489.5,154.5 -488,155.875 C-486.5,157.25 -485.375,158.25 -481.25,158.5 C-477.125,158.75 -423.375,158.5 -420.75,158.375 C-418.125,158.25 -414.625,158.25 -413.375,155.875 C-412.125,153.5 -411.5360107421875,149.6439971923828 -411,146.875 C-410.25,143 -377.84600830078125,18.631999969482422 -377,15.25 C-375.75,10.25 -369.5,-15.125 -369.5,-24 C-369.5,-32.875 -371.125,-60.25 -388.75,-69 C-405.7799987792969,-77.45500183105469 -430.375,-77.5 -447,-71.375z"></path></g></g><g clip-path="url(#__lottie_element_26)" transform="matrix(1.0199999809265137,0,0,1.0199999809265137,-19.199981689453125,-10.799989700317383)" opacity="1" style="display: block;"><g transform="matrix(1,0,0,1,1199.0570068359375,540)" opacity="1" style="display: block;"><g opacity="1" transform="matrix(1,0,0,1,0,0)"><path fill="rgb(0,0,0)" fill-opacity="1" d=" M-577.75,9.875 C-579.625,11 -581.75,19.625 -581.75,19.625 C-581.75,19.625 -592,58 -592,58 C-592,58 -595.25,70 -593.375,72.375 C-591.9959716796875,74.12200164794922 -579.5,73.5 -579.5,73.5 C-579.5,73.5 -534,73.5 -534,73.5 C-534,73.5 -521.7479858398438,74.41300201416016 -519.625,72.625 C-517.25,70.625 -514,55 -514,55 C-514,55 -505.25,22.625 -505.25,22.625 C-505.25,22.625 -502.5,12.5 -503.75,10.125 C-505.0270080566406,7.698999881744385 -519.0050048828125,8.482999801635742 -519.0050048828125,8.482999801635742 C-519.0050048828125,8.482999801635742 -566.3679809570312,8.810999870300293 -566.3679809570312,8.810999870300293 C-566.3679809570312,8.810999870300293 -575.7559814453125,8.678999900817871 -577.75,9.875z"></path><path stroke-linecap="butt" stroke-linejoin="miter" fill-opacity="0" stroke-miterlimit="4" stroke="rgb(0,0,0)" stroke-opacity="1" stroke-width="1" d=" M-577.75,9.875 C-579.625,11 -581.75,19.625 -581.75,19.625 C-581.75,19.625 -592,58 -592,58 C-592,58 -595.25,70 -593.375,72.375 C-591.9959716796875,74.12200164794922 -579.5,73.5 -579.5,73.5 C-579.5,73.5 -534,73.5 -534,73.5 C-534,73.5 -521.7479858398438,74.41300201416016 -519.625,72.625 C-517.25,70.625 -514,55 -514,55 C-514,55 -505.25,22.625 -505.25,22.625 C-505.25,22.625 -502.5,12.5 -503.75,10.125 C-505.0270080566406,7.698999881744385 -519.0050048828125,8.482999801635742 -519.0050048828125,8.482999801635742 C-519.0050048828125,8.482999801635742 -566.3679809570312,8.810999870300293 -566.3679809570312,8.810999870300293 C-566.3679809570312,8.810999870300293 -575.7559814453125,8.678999900817871 -577.75,9.875z"></path></g></g><g mask="url(#__lottie_element_68)" style="display: block;"><g transform="matrix(1,0,0,1,960,540)" opacity="1"><g opacity="1" transform="matrix(1,0,0,1,0,0)"><path fill="rgb(0,0,0)" fill-opacity="1" d=" M-269.25,27.75 C-269.25,27.75 -345.5,27.75 -345.5,27.75 C-345.5,27.75 -347.5,37 -354.75,65.5 C-362,94 -357.75,125.25 -335.75,145.5 C-313.75,165.75 -271.25,166.25 -239,157.75 C-206.75,149.25 -192.75,136.25 -173.25,113 C-153.75,89.75 -141,47 -141,47 C-141,47 -140.25,40.75 -140.25,40.75 C-140.25,40.75 -216.75,40.75 -216.75,40.75 C-216.75,40.75 -223.75,65 -236.25,92.25 C-243.8509979248047,108.81900024414062 -256,122 -265.75,123.75 C-275.5,125.5 -279.75,121.25 -281.5,102.5 C-283.25,83.75 -276.25,61.25 -276.25,61.25 C-276.25,61.25 -269.25,27.75 -269.25,27.75z"></path><path stroke-linecap="butt" stroke-linejoin="miter" fill-opacity="0" stroke-miterlimit="4" stroke="rgb(0,0,0)" stroke-opacity="1" stroke-width="1" d=" M-269.25,27.75 C-269.25,27.75 -345.5,27.75 -345.5,27.75 C-345.5,27.75 -347.5,37 -354.75,65.5 C-362,94 -357.75,125.25 -335.75,145.5 C-313.75,165.75 -271.25,166.25 -239,157.75 C-206.75,149.25 -192.75,136.25 -173.25,113 C-153.75,89.75 -141,47 -141,47 C-141,47 -140.25,40.75 -140.25,40.75 C-140.25,40.75 -216.75,40.75 -216.75,40.75 C-216.75,40.75 -223.75,65 -236.25,92.25 C-243.8509979248047,108.81900024414062 -256,122 -265.75,123.75 C-275.5,125.5 -279.75,121.25 -281.5,102.5 C-283.25,83.75 -276.25,61.25 -276.25,61.25 C-276.25,61.25 -269.25,27.75 -269.25,27.75z"></path></g></g></g></g><g clip-path="url(#__lottie_element_30)" transform="matrix(1.0199999809265137,0,0,1.0199999809265137,-19.199981689453125,-10.799989700317383)" opacity="1" style="display: block;"><g mask="url(#__lottie_element_74)" style="display: block;"><g transform="matrix(1,0,0,1,960,540)" opacity="1"><g opacity="1" transform="matrix(1,0,0,1,0,0)"><path fill="rgb(0,0,0)" fill-opacity="1" d=" M-184.75,-73 C-202.1909942626953,-76.30500030517578 -221.25,-75.75 -244,-71.75 C-265.90301513671875,-67.89900207519531 -283.75,-56.75 -293.25,-49.75 C-302.75,-42.75 -322.5,-24.25 -332,-5.75 C-341.5,12.75 -347.25,35.5 -347.25,35.5 C-347.25,35.5 -270,35.5 -270,35.5 C-270,35.5 -262.90301513671875,14.312999725341797 -256.25,0 C-248,-17.75 -236.75,-33 -229.25,-35.25 C-221.75,-37.5 -211.5,-37 -209.5,-22.75 C-207.927001953125,-11.541000366210938 -209.5,1.5 -211.75,13.5 C-214,25.5 -217.5,44 -217.5,44 C-217.5,44 -140.75,44.25 -140.75,44.25 C-140.75,44.25 -138.5,34.25 -138.5,34.25 C-138.5,34.25 -132.5,12.75 -132.75,-1.25 C-133,-15.25 -132.5,-29.75 -141.5,-44.25 C-150.5,-58.75 -161,-68.5 -184.75,-73z"></path><path stroke-linecap="butt" stroke-linejoin="miter" fill-opacity="0" stroke-miterlimit="4" stroke="rgb(0,0,0)" stroke-opacity="1" stroke-width="1" d=" M-184.75,-73 C-202.1909942626953,-76.30500030517578 -221.25,-75.75 -244,-71.75 C-265.90301513671875,-67.89900207519531 -283.75,-56.75 -293.25,-49.75 C-302.75,-42.75 -322.5,-24.25 -332,-5.75 C-341.5,12.75 -347.25,35.5 -347.25,35.5 C-347.25,35.5 -270,35.5 -270,35.5 C-270,35.5 -262.90301513671875,14.312999725341797 -256.25,0 C-248,-17.75 -236.75,-33 -229.25,-35.25 C-221.75,-37.5 -211.5,-37 -209.5,-22.75 C-207.927001953125,-11.541000366210938 -209.5,1.5 -211.75,13.5 C-214,25.5 -217.5,44 -217.5,44 C-217.5,44 -140.75,44.25 -140.75,44.25 C-140.75,44.25 -138.5,34.25 -138.5,34.25 C-138.5,34.25 -132.5,12.75 -132.75,-1.25 C-133,-15.25 -132.5,-29.75 -141.5,-44.25 C-150.5,-58.75 -161,-68.5 -184.75,-73z"></path></g></g></g><g transform="matrix(1,0,0,1,1331.2470703125,538.10302734375)" opacity="1" style="display: block;"><g opacity="1" transform="matrix(1,0,0,1,0,0)"><path fill="rgb(0,0,0)" fill-opacity="1" d=" M-581.25,20.375 C-583.125,21.5 -585.25,30.125 -585.25,30.125 C-585.25,30.125 -597.5,70 -597.5,70 C-597.5,70 -600.75,82 -598.875,84.375 C-597.4959716796875,86.12200164794922 -585,85.5 -585,85.5 C-585,85.5 -539.5,85.5 -539.5,85.5 C-539.5,85.5 -527.2479858398438,86.41300201416016 -525.125,84.625 C-522.75,82.625 -519.5,67 -519.5,67 C-519.5,67 -508.75,33.125 -508.75,33.125 C-508.75,33.125 -506,23 -507.25,20.625 C-508.5270080566406,18.198999404907227 -522.5050048828125,18.982999801635742 -522.5050048828125,18.982999801635742 C-522.5050048828125,18.982999801635742 -569.8679809570312,19.31100082397461 -569.8679809570312,19.31100082397461 C-569.8679809570312,19.31100082397461 -579.2559814453125,19.179000854492188 -581.25,20.375z"></path><path stroke-linecap="butt" stroke-linejoin="miter" fill-opacity="0" stroke-miterlimit="4" stroke="rgb(0,0,0)" stroke-opacity="1" stroke-width="1" d=" M-581.25,20.375 C-583.125,21.5 -585.25,30.125 -585.25,30.125 C-585.25,30.125 -597.5,70 -597.5,70 C-597.5,70 -600.75,82 -598.875,84.375 C-597.4959716796875,86.12200164794922 -585,85.5 -585,85.5 C-585,85.5 -539.5,85.5 -539.5,85.5 C-539.5,85.5 -527.2479858398438,86.41300201416016 -525.125,84.625 C-522.75,82.625 -519.5,67 -519.5,67 C-519.5,67 -508.75,33.125 -508.75,33.125 C-508.75,33.125 -506,23 -507.25,20.625 C-508.5270080566406,18.198999404907227 -522.5050048828125,18.982999801635742 -522.5050048828125,18.982999801635742 C-522.5050048828125,18.982999801635742 -569.8679809570312,19.31100082397461 -569.8679809570312,19.31100082397461 C-569.8679809570312,19.31100082397461 -579.2559814453125,19.179000854492188 -581.25,20.375z"></path></g></g></g><g clip-path="url(#__lottie_element_35)" transform="matrix(1.0199999809265137,0,0,1.0199999809265137,-19.199981689453125,-10.799989700317383)" opacity="1" style="display: block;"><g mask="url(#__lottie_element_83)" style="display: block;"><g transform="matrix(1,0,0,1,960,540)" opacity="1"><g opacity="1" transform="matrix(1,0,0,1,0,0)"><path fill="rgb(0,0,0)" fill-opacity="1" d=" M17.5,43 C17.5,43 15.25,48.5 9.75,66.25 C4.665999889373779,82.65799713134766 -6.25,103 -18.5,114.25 C-30.75,125.5 -40.75,128 -47.25,121 C-51.82699966430664,116.07099914550781 -47.5,99.25 -46,93.25 C-44.5,87.25 -40.75,73.75 -40.75,73.75 C-40.75,73.75 -118,73.75 -118,73.75 C-118,73.75 -121,85.5 -123,92.5 C-125,99.5 -130.25,126.5 -120.75,142.5 C-111.25,158.5 -99.25,161.75 -82.75,162.75 C-66.25,163.75 -45.555999755859375,161.6580047607422 -26.25,144 C-5.75,125.25 -0.30399999022483826,109.25800323486328 10.5,85.25 C15,75.25 17.5,43 17.5,43z"></path><path stroke-linecap="butt" stroke-linejoin="miter" fill-opacity="0" stroke-miterlimit="4" stroke="rgb(0,0,0)" stroke-opacity="1" stroke-width="1" d=" M17.5,43 C17.5,43 15.25,48.5 9.75,66.25 C4.665999889373779,82.65799713134766 -6.25,103 -18.5,114.25 C-30.75,125.5 -40.75,128 -47.25,121 C-51.82699966430664,116.07099914550781 -47.5,99.25 -46,93.25 C-44.5,87.25 -40.75,73.75 -40.75,73.75 C-40.75,73.75 -118,73.75 -118,73.75 C-118,73.75 -121,85.5 -123,92.5 C-125,99.5 -130.25,126.5 -120.75,142.5 C-111.25,158.5 -99.25,161.75 -82.75,162.75 C-66.25,163.75 -45.555999755859375,161.6580047607422 -26.25,144 C-5.75,125.25 -0.30399999022483826,109.25800323486328 10.5,85.25 C15,75.25 17.5,43 17.5,43z"></path></g></g></g><g transform="matrix(1,0,0,1,1438.5570068359375,540)" opacity="1" style="display: block;"><g opacity="1" transform="matrix(1,0,0,1,0,0)"><path fill="rgb(0,0,0)" fill-opacity="1" d=" M-559.25,-68.625 C-561.125,-67.5 -563.25,-58.875 -563.25,-58.875 C-563.25,-58.875 -599,81.5 -599,81.5 C-599,81.5 -602.25,93.5 -600.375,95.875 C-598.9959716796875,97.62200164794922 -586.5,97 -586.5,97 C-586.5,97 -541,97 -541,97 C-541,97 -528.7479858398438,97.91300201416016 -526.625,96.125 C-524.25,94.125 -521,78.5 -521,78.5 C-521,78.5 -486.75,-55.875 -486.75,-55.875 C-486.75,-55.875 -484,-66 -485.25,-68.375 C-486.5270080566406,-70.8010025024414 -500.5050048828125,-70.01699829101562 -500.5050048828125,-70.01699829101562 C-500.5050048828125,-70.01699829101562 -547.8679809570312,-69.68900299072266 -547.8679809570312,-69.68900299072266 C-547.8679809570312,-69.68900299072266 -557.2559814453125,-69.82099914550781 -559.25,-68.625z"></path><path stroke-linecap="butt" stroke-linejoin="miter" fill-opacity="0" stroke-miterlimit="4" stroke="rgb(0,0,0)" stroke-opacity="1" stroke-width="1" d=" M-559.25,-68.625 C-561.125,-67.5 -563.25,-58.875 -563.25,-58.875 C-563.25,-58.875 -599,81.5 -599,81.5 C-599,81.5 -602.25,93.5 -600.375,95.875 C-598.9959716796875,97.62200164794922 -586.5,97 -586.5,97 C-586.5,97 -541,97 -541,97 C-541,97 -528.7479858398438,97.91300201416016 -526.625,96.125 C-524.25,94.125 -521,78.5 -521,78.5 C-521,78.5 -486.75,-55.875 -486.75,-55.875 C-486.75,-55.875 -484,-66 -485.25,-68.375 C-486.5270080566406,-70.8010025024414 -500.5050048828125,-70.01699829101562 -500.5050048828125,-70.01699829101562 C-500.5050048828125,-70.01699829101562 -547.8679809570312,-69.68900299072266 -547.8679809570312,-69.68900299072266 C-547.8679809570312,-69.68900299072266 -557.2559814453125,-69.82099914550781 -559.25,-68.625z"></path></g></g></g><g clip-path="url(#__lottie_element_39)" transform="matrix(1.0199999809265137,0,0,1.0199999809265137,-19.199981689453125,-10.799989700317383)" opacity="1" style="display: block;"><g transform="matrix(1,0,0,1,1565.7469482421875,538.10302734375)" opacity="1" style="display: block;"><g opacity="1" transform="matrix(1,0,0,1,0,0)"><path fill="rgb(0,0,0)" fill-opacity="1" d=" M-559.25,-68.625 C-561.125,-67.5 -563.25,-58.875 -563.25,-58.875 C-563.25,-58.875 -614,142 -614,142 C-614,142 -617.25,154 -615.375,156.375 C-613.9959716796875,158.1219940185547 -601.5,157.5 -601.5,157.5 C-601.5,157.5 -556,157.5 -556,157.5 C-556,157.5 -543.7479858398438,158.41299438476562 -541.625,156.625 C-539.25,154.625 -536,139 -536,139 C-536,139 -486.75,-55.875 -486.75,-55.875 C-486.75,-55.875 -484,-66 -485.25,-68.375 C-486.5270080566406,-70.8010025024414 -500.5050048828125,-70.01699829101562 -500.5050048828125,-70.01699829101562 C-500.5050048828125,-70.01699829101562 -547.8679809570312,-69.68900299072266 -547.8679809570312,-69.68900299072266 C-547.8679809570312,-69.68900299072266 -557.2559814453125,-69.82099914550781 -559.25,-68.625z"></path><path stroke-linecap="butt" stroke-linejoin="miter" fill-opacity="0" stroke-miterlimit="4" stroke="rgb(0,0,0)" stroke-opacity="1" stroke-width="1" d=" M-559.25,-68.625 C-561.125,-67.5 -563.25,-58.875 -563.25,-58.875 C-563.25,-58.875 -614,142 -614,142 C-614,142 -617.25,154 -615.375,156.375 C-613.9959716796875,158.1219940185547 -601.5,157.5 -601.5,157.5 C-601.5,157.5 -556,157.5 -556,157.5 C-556,157.5 -543.7479858398438,158.41299438476562 -541.625,156.625 C-539.25,154.625 -536,139 -536,139 C-536,139 -486.75,-55.875 -486.75,-55.875 C-486.75,-55.875 -484,-66 -485.25,-68.375 C-486.5270080566406,-70.8010025024414 -500.5050048828125,-70.01699829101562 -500.5050048828125,-70.01699829101562 C-500.5050048828125,-70.01699829101562 -547.8679809570312,-69.68900299072266 -547.8679809570312,-69.68900299072266 C-547.8679809570312,-69.68900299072266 -557.2559814453125,-69.82099914550781 -559.25,-68.625z"></path></g></g></g><g clip-path="url(#__lottie_element_44)" transform="matrix(1.0199999809265137,0,0,1.0199999809265137,-19.199981689453125,-10.799989700317383)" opacity="1" style="display: block;"><g transform="matrix(1,0,0,1,1684.0570068359375,540)" opacity="1" style="display: block;"><g opacity="1" transform="matrix(1,0,0,1,0,0)"><path fill="rgb(0,0,0)" fill-opacity="1" d=" M-559.25,-68.625 C-561.125,-67.5 -563.25,-58.875 -563.25,-58.875 C-563.25,-58.875 -614,142 -614,142 C-614,142 -617.25,154 -615.375,156.375 C-613.9959716796875,158.1219940185547 -601.5,157.5 -601.5,157.5 C-601.5,157.5 -556,157.5 -556,157.5 C-556,157.5 -543.7479858398438,158.41299438476562 -541.625,156.625 C-539.25,154.625 -536,139 -536,139 C-536,139 -486.75,-55.875 -486.75,-55.875 C-486.75,-55.875 -484,-66 -485.25,-68.375 C-486.5270080566406,-70.8010025024414 -500.5050048828125,-70.01699829101562 -500.5050048828125,-70.01699829101562 C-500.5050048828125,-70.01699829101562 -547.8679809570312,-69.68900299072266 -547.8679809570312,-69.68900299072266 C-547.8679809570312,-69.68900299072266 -557.2559814453125,-69.82099914550781 -559.25,-68.625z"></path><path stroke-linecap="butt" stroke-linejoin="miter" fill-opacity="0" stroke-miterlimit="4" stroke="rgb(0,0,0)" stroke-opacity="1" stroke-width="1" d=" M-559.25,-68.625 C-561.125,-67.5 -563.25,-58.875 -563.25,-58.875 C-563.25,-58.875 -614,142 -614,142 C-614,142 -617.25,154 -615.375,156.375 C-613.9959716796875,158.1219940185547 -601.5,157.5 -601.5,157.5 C-601.5,157.5 -556,157.5 -556,157.5 C-556,157.5 -543.7479858398438,158.41299438476562 -541.625,156.625 C-539.25,154.625 -536,139 -536,139 C-536,139 -486.75,-55.875 -486.75,-55.875 C-486.75,-55.875 -484,-66 -485.25,-68.375 C-486.5270080566406,-70.8010025024414 -500.5050048828125,-70.01699829101562 -500.5050048828125,-70.01699829101562 C-500.5050048828125,-70.01699829101562 -547.8679809570312,-69.68900299072266 -547.8679809570312,-69.68900299072266 C-547.8679809570312,-69.68900299072266 -557.2559814453125,-69.82099914550781 -559.25,-68.625z"></path></g></g></g><g clip-path="url(#__lottie_element_48)" transform="matrix(1.0199999809265137,0,0,1.0199999809265137,-19.199981689453125,-10.799989700317383)" opacity="1" style="display: block;"><g transform="matrix(1,0,0,1,1808.7469482421875,541.10302734375)" opacity="1" style="display: block;"><g opacity="1" transform="matrix(1,0,0,1,0,0)"><path fill="rgb(0,0,0)" fill-opacity="1" d=" M-575,-5.125 C-576.875,-4 -579,4.625 -579,4.625 C-579,4.625 -614,142 -614,142 C-614,142 -617.25,154 -615.375,156.375 C-613.9959716796875,158.1219940185547 -601.5,157.5 -601.5,157.5 C-601.5,157.5 -556,157.5 -556,157.5 C-556,157.5 -543.7479858398438,158.41299438476562 -541.625,156.625 C-539.25,154.625 -536,139 -536,139 C-536,139 -502.5,7.625 -502.5,7.625 C-502.5,7.625 -499.75,-2.5 -501,-4.875 C-502.2770080566406,-7.301000118255615 -516.2550048828125,-6.517000198364258 -516.2550048828125,-6.517000198364258 C-516.2550048828125,-6.517000198364258 -563.6179809570312,-6.189000129699707 -563.6179809570312,-6.189000129699707 C-563.6179809570312,-6.189000129699707 -573.0059814453125,-6.321000099182129 -575,-5.125z"></path><path stroke-linecap="butt" stroke-linejoin="miter" fill-opacity="0" stroke-miterlimit="4" stroke="rgb(0,0,0)" stroke-opacity="1" stroke-width="1" d=" M-575,-5.125 C-576.875,-4 -579,4.625 -579,4.625 C-579,4.625 -614,142 -614,142 C-614,142 -617.25,154 -615.375,156.375 C-613.9959716796875,158.1219940185547 -601.5,157.5 -601.5,157.5 C-601.5,157.5 -556,157.5 -556,157.5 C-556,157.5 -543.7479858398438,158.41299438476562 -541.625,156.625 C-539.25,154.625 -536,139 -536,139 C-536,139 -502.5,7.625 -502.5,7.625 C-502.5,7.625 -499.75,-2.5 -501,-4.875 C-502.2770080566406,-7.301000118255615 -516.2550048828125,-6.517000198364258 -516.2550048828125,-6.517000198364258 C-516.2550048828125,-6.517000198364258 -563.6179809570312,-6.189000129699707 -563.6179809570312,-6.189000129699707 C-563.6179809570312,-6.189000129699707 -573.0059814453125,-6.321000099182129 -575,-5.125z"></path></g></g><g mask="url(#__lottie_element_102)" style="display: block;"><g transform="matrix(1,0,0,1,960,540)" opacity="1"><g opacity="1" transform="matrix(1,0,0,1,0,0)"><path fill="rgb(0,0,0)" fill-opacity="1" d=" M324.125,-72.75 C295.62799072265625,-79.26399993896484 276.75,-73.625 263.5,-65 C250.45399475097656,-56.507999420166016 238.25,-42 231.25,-29 C224.25,-16 220,11.75 220,11.75 C220,11.75 230.00599670410156,-10.17300033569336 241,-22.5 C253.375,-36.375 266.75,-40 272.75,-34.25 C278.75,-28.5 273.5,-10 271.75,-2 C270,6 267.5,14 267.5,14 C267.5,14 344.25,14 344.25,14 C344.25,14 348.25,-1.25 348.25,-1.25 C348.25,-1.25 352.87799072265625,-16.41200065612793 352.5,-28.5 C352.125,-40.5 350.375,-66.75 324.125,-72.75z"></path><path stroke-linecap="butt" stroke-linejoin="miter" fill-opacity="0" stroke-miterlimit="4" stroke="rgb(0,0,0)" stroke-opacity="1" stroke-width="1" d=" M324.125,-72.75 C295.62799072265625,-79.26399993896484 276.75,-73.625 263.5,-65 C250.45399475097656,-56.507999420166016 238.25,-42 231.25,-29 C224.25,-16 220,11.75 220,11.75 C220,11.75 230.00599670410156,-10.17300033569336 241,-22.5 C253.375,-36.375 266.75,-40 272.75,-34.25 C278.75,-28.5 273.5,-10 271.75,-2 C270,6 267.5,14 267.5,14 C267.5,14 344.25,14 344.25,14 C344.25,14 348.25,-1.25 348.25,-1.25 C348.25,-1.25 352.87799072265625,-16.41200065612793 352.5,-28.5 C352.125,-40.5 350.375,-66.75 324.125,-72.75z"></path></g></g></g></g><g transform="matrix(1.0199999809265137,0,0,1.0199999809265137,960,540)" opacity="1" style="display: block;"><g opacity="1" transform="matrix(1,0,0,1,0,0)"><path fill="rgb(0,0,0)" fill-opacity="1" d=" M492,-73 C477.5480041503906,-80.36699676513672 458,-80 435.5,-71.25 C415.1449890136719,-63.33399963378906 397.25,-39.75 389.5,-21.75 C381.75,-3.75 370.75,26.25 365.25,53.25 C360.36700439453125,77.2229995727539 355.25,111.75 364.75,133.75 C374.25,155.75 384,159.5 402.5,160.25 C421,161 440.75,153.75 451.25,144 C461.75,134.25 475,120.25 482,101.5 C489,82.75 492,69.25 487.75,77.25 C483.5,85.25 479.75,95.25 473,105.25 C466.25,115.25 456.25,125.75 445.75,121.5 C437.9639892578125,118.3479995727539 435.8550109863281,104.56099700927734 436.5,89.5 C437.25,72 439.5,51.5 447.25,27 C455,2.5 464.75,-20.5 475.5,-31.75 C486.25,-43 497,-43.5 500.5,-29.75 C504,-16 500.5,4.75 500,13.25 C499.5,21.75 500.75,20 503.25,9 C505.75,-2 507.5,-16 508.75,-32.5 C509.8139953613281,-46.540000915527344 504.75,-66.5 492,-73z"></path><path stroke-linecap="butt" stroke-linejoin="miter" fill-opacity="0" stroke-miterlimit="4" stroke="rgb(0,0,0)" stroke-opacity="1" stroke-width="1" d=" M492,-73 C477.5480041503906,-80.36699676513672 458,-80 435.5,-71.25 C415.1449890136719,-63.33399963378906 397.25,-39.75 389.5,-21.75 C381.75,-3.75 370.75,26.25 365.25,53.25 C360.36700439453125,77.2229995727539 355.25,111.75 364.75,133.75 C374.25,155.75 384,159.5 402.5,160.25 C421,161 440.75,153.75 451.25,144 C461.75,134.25 475,120.25 482,101.5 C489,82.75 492,69.25 487.75,77.25 C483.5,85.25 479.75,95.25 473,105.25 C466.25,115.25 456.25,125.75 445.75,121.5 C437.9639892578125,118.3479995727539 435.8550109863281,104.56099700927734 436.5,89.5 C437.25,72 439.5,51.5 447.25,27 C455,2.5 464.75,-20.5 475.5,-31.75 C486.25,-43 497,-43.5 500.5,-29.75 C504,-16 500.5,4.75 500,13.25 C499.5,21.75 500.75,20 503.25,9 C505.75,-2 507.5,-16 508.75,-32.5 C509.8139953613281,-46.540000915527344 504.75,-66.5 492,-73z"></path></g></g><g clip-path="url(#__lottie_element_56)" transform="matrix(-1.0199999809265137,0,0,-1.0199999809265137,1940.219970703125,1086.719970703125)" opacity="1" style="display: block;"><g transform="matrix(1,0,0,1,960.364990234375,540)" opacity="1" style="display: block;"><g opacity="1" transform="matrix(1,0,0,1,0,0)"><path fill="rgb(0,0,0)" fill-opacity="1" d=" M-537.25,-157.625 C-539.125,-156.5 -541.25,-147.875 -541.25,-147.875 C-541.25,-147.875 -614,142 -614,142 C-614,142 -617.25,154 -615.375,156.375 C-613.9959716796875,158.1219940185547 -601.5,157.5 -601.5,157.5 C-601.5,157.5 -556,157.5 -556,157.5 C-556,157.5 -543.7479858398438,158.41299438476562 -541.625,156.625 C-539.25,154.625 -536,139 -536,139 C-536,139 -464.75,-144.875 -464.75,-144.875 C-464.75,-144.875 -462,-155 -463.25,-157.375 C-464.5270080566406,-159.80099487304688 -478.5050048828125,-159.01699829101562 -478.5050048828125,-159.01699829101562 C-478.5050048828125,-159.01699829101562 -525.8679809570312,-158.68899536132812 -525.8679809570312,-158.68899536132812 C-525.8679809570312,-158.68899536132812 -535.2559814453125,-158.8209991455078 -537.25,-157.625z"></path><path stroke-linecap="butt" stroke-linejoin="miter" fill-opacity="0" stroke-miterlimit="4" stroke="rgb(0,0,0)" stroke-opacity="1" stroke-width="1" d=" M-537.25,-157.625 C-539.125,-156.5 -541.25,-147.875 -541.25,-147.875 C-541.25,-147.875 -614,142 -614,142 C-614,142 -617.25,154 -615.375,156.375 C-613.9959716796875,158.1219940185547 -601.5,157.5 -601.5,157.5 C-601.5,157.5 -556,157.5 -556,157.5 C-556,157.5 -543.7479858398438,158.41299438476562 -541.625,156.625 C-539.25,154.625 -536,139 -536,139 C-536,139 -464.75,-144.875 -464.75,-144.875 C-464.75,-144.875 -462,-155 -463.25,-157.375 C-464.5270080566406,-159.80099487304688 -478.5050048828125,-159.01699829101562 -478.5050048828125,-159.01699829101562 C-478.5050048828125,-159.01699829101562 -525.8679809570312,-158.68899536132812 -525.8679809570312,-158.68899536132812 C-525.8679809570312,-158.68899536132812 -535.2559814453125,-158.8209991455078 -537.25,-157.625z"></path></g></g></g></g></g><g clip-path="url(#__lottie_element_162)" style="display: none;" transform="matrix(1,0,0,1,0,0)" opacity="1"><g clip-path="url(#__lottie_element_163)"><g clip-path="url(#__lottie_element_168)" style="display: block;" transform="matrix(1.0199999809265137,0,0,1.0199999809265137,-19.199981689453125,-10.799989700317383)" opacity="1"><g style="display: block;" transform="matrix(1,0,0,1,1330.582275390625,158.5)" opacity="1"><g opacity="1" transform="matrix(1,0,0,1,0,0)"><path fill="rgb(0,0,0)" fill-opacity="1" d=" M-665.869140625,90.85204315185547 C-667.744140625,91.97704315185547 -669.869140625,100.60204315185547 -669.869140625,100.60204315185547 C-669.869140625,100.60204315185547 -680.619140625,141.97703552246094 -680.619140625,141.97703552246094 C-680.619140625,141.97703552246094 -683.869140625,153.97703552246094 -681.994140625,156.35203552246094 C-680.6151123046875,158.0990447998047 -668.119140625,157.47703552246094 -668.119140625,157.47703552246094 C-668.119140625,157.47703552246094 -556,157.5 -556,157.5 C-556,157.5 -543.7479858398438,158.41299438476562 -541.625,156.625 C-539.25,154.625 -536,139 -536,139 C-536,139 -526.75,103.625 -526.75,103.625 C-526.75,103.625 -524,93.5 -525.25,91.125 C-526.5269775390625,88.6989974975586 -540.5050048828125,89.48300170898438 -540.5050048828125,89.48300170898438 C-540.5050048828125,89.48300170898438 -654.4871215820312,89.78768920898438 -654.4871215820312,89.78768920898438 C-654.4871215820312,89.78768920898438 -663.8751220703125,89.65603637695312 -665.869140625,90.85204315185547z"></path><path stroke-linecap="butt" stroke-linejoin="miter" fill-opacity="0" stroke-miterlimit="4" stroke="rgb(0,0,0)" stroke-opacity="1" stroke-width="1" d=" M-665.869140625,90.85204315185547 C-667.744140625,91.97704315185547 -669.869140625,100.60204315185547 -669.869140625,100.60204315185547 C-669.869140625,100.60204315185547 -680.619140625,141.97703552246094 -680.619140625,141.97703552246094 C-680.619140625,141.97703552246094 -683.869140625,153.97703552246094 -681.994140625,156.35203552246094 C-680.6151123046875,158.0990447998047 -668.119140625,157.47703552246094 -668.119140625,157.47703552246094 C-668.119140625,157.47703552246094 -556,157.5 -556,157.5 C-556,157.5 -543.7479858398438,158.41299438476562 -541.625,156.625 C-539.25,154.625 -536,139 -536,139 C-536,139 -526.75,103.625 -526.75,103.625 C-526.75,103.625 -524,93.5 -525.25,91.125 C-526.5269775390625,88.6989974975586 -540.5050048828125,89.48300170898438 -540.5050048828125,89.48300170898438 C-540.5050048828125,89.48300170898438 -654.4871215820312,89.78768920898438 -654.4871215820312,89.78768920898438 C-654.4871215820312,89.78768920898438 -663.8751220703125,89.65603637695312 -665.869140625,90.85204315185547z"></path></g></g></g><g clip-path="url(#__lottie_element_173)" style="display: block;" transform="matrix(1.0199999809265137,0,0,1.0199999809265137,-19.199981689453125,-10.799989700317383)" opacity="1"></g><g clip-path="url(#__lottie_element_177)" style="display: block;" transform="matrix(1.0199999809265137,0,0,1.0199999809265137,-19.199981689453125,-10.799989700317383)" opacity="1"></g><g clip-path="url(#__lottie_element_182)" style="display: block;" transform="matrix(1.0199999809265137,0,0,1.0199999809265137,-19.199981689453125,-10.799989700317383)" opacity="1"></g><g clip-path="url(#__lottie_element_186)" style="display: block;" transform="matrix(1.0199999809265137,0,0,1.0199999809265137,-19.199981689453125,-10.799989700317383)" opacity="1"></g><g clip-path="url(#__lottie_element_191)" style="display: block;" transform="matrix(1.0199999809265137,0,0,1.0199999809265137,-19.199981689453125,-10.799989700317383)" opacity="1"></g><g clip-path="url(#__lottie_element_195)" style="display: block;" transform="matrix(1.0199999809265137,0,0,1.0199999809265137,-19.199981689453125,-10.799989700317383)" opacity="1"></g><g clip-path="url(#__lottie_element_200)" style="display: block;" transform="matrix(-1.0199999809265137,0,0,-1.0199999809265137,1940.219970703125,1086.719970703125)" opacity="1"><g style="display: block;" transform="matrix(1,0,0,1,1330.582275390625,158.5)" opacity="1"><g opacity="1" transform="matrix(1,0,0,1,0,0)"><path fill="rgb(0,0,0)" fill-opacity="1" d=" M-665.869140625,90.85204315185547 C-667.744140625,91.97704315185547 -669.869140625,100.60204315185547 -669.869140625,100.60204315185547 C-669.869140625,100.60204315185547 -680.619140625,141.97703552246094 -680.619140625,141.97703552246094 C-680.619140625,141.97703552246094 -683.869140625,153.97703552246094 -681.994140625,156.35203552246094 C-680.6151123046875,158.0990447998047 -668.119140625,157.47703552246094 -668.119140625,157.47703552246094 C-668.119140625,157.47703552246094 -556,157.5 -556,157.5 C-556,157.5 -543.7479858398438,158.41299438476562 -541.625,156.625 C-539.25,154.625 -536,139 -536,139 C-536,139 -526.75,103.625 -526.75,103.625 C-526.75,103.625 -524,93.5 -525.25,91.125 C-526.5269775390625,88.6989974975586 -540.5050048828125,89.48300170898438 -540.5050048828125,89.48300170898438 C-540.5050048828125,89.48300170898438 -654.4871215820312,89.78768920898438 -654.4871215820312,89.78768920898438 C-654.4871215820312,89.78768920898438 -663.8751220703125,89.65603637695312 -665.869140625,90.85204315185547z"></path><path stroke-linecap="butt" stroke-linejoin="miter" fill-opacity="0" stroke-miterlimit="4" stroke="rgb(0,0,0)" stroke-opacity="1" stroke-width="1" d=" M-665.869140625,90.85204315185547 C-667.744140625,91.97704315185547 -669.869140625,100.60204315185547 -669.869140625,100.60204315185547 C-669.869140625,100.60204315185547 -680.619140625,141.97703552246094 -680.619140625,141.97703552246094 C-680.619140625,141.97703552246094 -683.869140625,153.97703552246094 -681.994140625,156.35203552246094 C-680.6151123046875,158.0990447998047 -668.119140625,157.47703552246094 -668.119140625,157.47703552246094 C-668.119140625,157.47703552246094 -556,157.5 -556,157.5 C-556,157.5 -543.7479858398438,158.41299438476562 -541.625,156.625 C-539.25,154.625 -536,139 -536,139 C-536,139 -526.75,103.625 -526.75,103.625 C-526.75,103.625 -524,93.5 -525.25,91.125 C-526.5269775390625,88.6989974975586 -540.5050048828125,89.48300170898438 -540.5050048828125,89.48300170898438 C-540.5050048828125,89.48300170898438 -654.4871215820312,89.78768920898438 -654.4871215820312,89.78768920898438 C-654.4871215820312,89.78768920898438 -663.8751220703125,89.65603637695312 -665.869140625,90.85204315185547z"></path></g></g></g></g></g><g clip-path="url(#__lottie_element_148)" style="display: none;" transform="matrix(0.7161775231361389,0,0,1,272.4696044921875,0)" opacity="1"><g style="display: block;" transform="matrix(1,0,0,1.0800000429153442,960,263.2933044433594)" opacity="1"><g opacity="1" transform="matrix(1,0,0,1,-56.3120002746582,267.5799865722656)"><path fill="rgb(0,0,0)" fill-opacity="1" d=" M700.8281860351562,-23.82832908630371 C700.8281860351562,-23.82832908630371 686.6810302734375,25.46809959411621 686.6810302734375,25.46809959411621 C685.93798828125,29.28334617614746 683.5469970703125,32.43022537231445 679.6810302734375,32.43022537231445 C679.6810302734375,32.43022537231445 -574.9310302734375,32.65599822998047 -574.9310302734375,32.65599822998047 C-578.7969970703125,32.65599822998047 -582.75,29.16299819946289 -581.9310302734375,25.693872451782227 C-581.9310302734375,25.693872451782227 -570.0338134765625,-23.55381965637207 -570.0338134765625,-23.55381965637207 C-569.2908325195312,-27.435699462890625 -566.8998413085938,-30.515947341918945 -563.0338134765625,-30.515947341918945 C-563.0338134765625,-30.515947341918945 693.8281860351562,-30.790449142456055 693.8281860351562,-30.790449142456055 C697.6942138671875,-30.790449142456055 701.460205078125,-27.767900466918945 700.8281860351562,-23.82832908630371z"></path><path stroke-linecap="butt" stroke-linejoin="miter" fill-opacity="0" stroke-miterlimit="4" stroke="rgb(0,0,0)" stroke-opacity="1" stroke-width="0" d=" M700.8281860351562,-23.82832908630371 C700.8281860351562,-23.82832908630371 686.6810302734375,25.46809959411621 686.6810302734375,25.46809959411621 C685.93798828125,29.28334617614746 683.5469970703125,32.43022537231445 679.6810302734375,32.43022537231445 C679.6810302734375,32.43022537231445 -574.9310302734375,32.65599822998047 -574.9310302734375,32.65599822998047 C-578.7969970703125,32.65599822998047 -582.75,29.16299819946289 -581.9310302734375,25.693872451782227 C-581.9310302734375,25.693872451782227 -570.0338134765625,-23.55381965637207 -570.0338134765625,-23.55381965637207 C-569.2908325195312,-27.435699462890625 -566.8998413085938,-30.515947341918945 -563.0338134765625,-30.515947341918945 C-563.0338134765625,-30.515947341918945 693.8281860351562,-30.790449142456055 693.8281860351562,-30.790449142456055 C697.6942138671875,-30.790449142456055 701.460205078125,-27.767900466918945 700.8281860351562,-23.82832908630371z"></path></g></g></g><g clip-path="url(#__lottie_element_152)" style="display: none;" transform="matrix(-0.7161775231361389,0,0,-1,1647.5303955078125,1080)" opacity="1"><g style="display: block;" transform="matrix(1,0,0,1.0800000429153442,960,263.2933044433594)" opacity="1"><g opacity="1" transform="matrix(1,0,0,1,-56.3120002746582,267.5799865722656)"><path fill="rgb(0,0,0)" fill-opacity="1" d=" M700.8281860351562,-23.82832908630371 C700.8281860351562,-23.82832908630371 686.6810302734375,25.46809959411621 686.6810302734375,25.46809959411621 C685.93798828125,29.28334617614746 683.5469970703125,32.43022537231445 679.6810302734375,32.43022537231445 C679.6810302734375,32.43022537231445 -574.9310302734375,32.65599822998047 -574.9310302734375,32.65599822998047 C-578.7969970703125,32.65599822998047 -582.75,29.16299819946289 -581.9310302734375,25.693872451782227 C-581.9310302734375,25.693872451782227 -570.0338134765625,-23.55381965637207 -570.0338134765625,-23.55381965637207 C-569.2908325195312,-27.435699462890625 -566.8998413085938,-30.515947341918945 -563.0338134765625,-30.515947341918945 C-563.0338134765625,-30.515947341918945 693.8281860351562,-30.790449142456055 693.8281860351562,-30.790449142456055 C697.6942138671875,-30.790449142456055 701.460205078125,-27.767900466918945 700.8281860351562,-23.82832908630371z"></path><path stroke-linecap="butt" stroke-linejoin="miter" fill-opacity="0" stroke-miterlimit="4" stroke="rgb(0,0,0)" stroke-opacity="1" stroke-width="0" d=" M700.8281860351562,-23.82832908630371 C700.8281860351562,-23.82832908630371 686.6810302734375,25.46809959411621 686.6810302734375,25.46809959411621 C685.93798828125,29.28334617614746 683.5469970703125,32.43022537231445 679.6810302734375,32.43022537231445 C679.6810302734375,32.43022537231445 -574.9310302734375,32.65599822998047 -574.9310302734375,32.65599822998047 C-578.7969970703125,32.65599822998047 -582.75,29.16299819946289 -581.9310302734375,25.693872451782227 C-581.9310302734375,25.693872451782227 -570.0338134765625,-23.55381965637207 -570.0338134765625,-23.55381965637207 C-569.2908325195312,-27.435699462890625 -566.8998413085938,-30.515947341918945 -563.0338134765625,-30.515947341918945 C-563.0338134765625,-30.515947341918945 693.8281860351562,-30.790449142456055 693.8281860351562,-30.790449142456055 C697.6942138671875,-30.790449142456055 701.460205078125,-27.767900466918945 700.8281860351562,-23.82832908630371z"></path></g></g></g></g></g></g></svg>